<svg width="284" height="150" viewBox="0 0 284 150" fill="none" xmlns="http://www.w3.org/2000/svg">
<path d="M199.48 74.9674C208.545 61.7579 217.438 55.1531 226.158 55.1531C239.785 55.1531 239.248 69.0521 239.248 92.3196C236.587 92.3196 233.714 92.3196 233.714 92.3196C233.714 85.4131 231.383 75.8391 229.536 72.5535C227.688 69.2008 224.454 67.5245 219.835 67.5245C212.905 67.5245 206.12 71.9835 199.48 80.9016V150H185.188V80.9016C185.188 74.6656 184.639 70.3742 183.542 68.0274C182.503 65.6805 180.713 64.5071 178.172 64.5071C174.072 64.5071 171.56 69.2008 170.636 78.5882H167.518C168.615 62.9648 174.159 55.1531 184.148 55.1531C188.595 55.1531 192.233 56.9636 195.062 60.5844C197.892 64.1383 199.364 68.9326 199.48 74.9674Z" fill="#F5F5F5"/>
<path d="M280.604 127.827H283.821C282.689 142.609 276.97 150 266.665 150C263.031 150 259.903 148.925 257.282 146.777C254.721 144.562 252.993 142.088 252.1 139.353C251.266 136.553 250.849 131.734 250.849 124.896V92.5644C250.849 82.1452 250.491 75.4705 249.776 72.5401C249.062 69.6097 247.274 68.1445 244.415 68.1445C242.747 68.1445 240.722 68.6329 238.339 69.6097L237.088 66.0932L261.75 55.1531H265.682V125.678C265.682 131.473 266.188 135.446 267.201 137.595C268.214 139.744 270.06 140.818 272.741 140.818C276.792 140.818 279.413 136.488 280.604 127.827Z" fill="#F5F5F5"/>
<path d="M66.541 57.7905H82.6345L72.8837 103.016C70.9904 111.612 69.6966 116.887 69.0024 118.84C71.5268 130.822 75.1873 136.813 79.9838 136.813C85.6638 136.813 88.5985 132.776 88.7879 124.701H92.1959C92.0065 132.255 90.6496 138.376 88.1252 143.065C85.6638 147.688 82.4136 150 78.3744 150C75.0295 150 72.5366 148.6 70.8957 145.8C69.2548 143 67.4877 137.269 65.5943 128.608C59.0307 142.869 48.3018 150 33.4074 150C23.2465 150 15.1682 145.93 9.1726 137.79C3.177 129.585 0.179199 117.863 0.179199 102.625C0.179199 87.6479 3.461 75.9914 10.0246 67.6561C16.5882 59.3208 24.4772 55.1531 33.6914 55.1531C40.1919 55.1531 45.5249 57.53 49.6902 62.2837C53.8556 67.0375 57.5476 74.7867 60.7663 85.5315L66.541 57.7905ZM58.2103 96.0808C55.244 85.5966 51.9307 77.4241 48.2702 71.5633C44.6097 65.6374 40.2235 62.6745 35.1115 62.6745C23.562 62.6745 17.7873 76.6101 17.7873 104.481C17.7873 130.92 23.3096 144.139 34.3541 144.139C43.9471 144.139 51.0471 132.483 55.6543 109.17L58.2103 96.0808Z" fill="#F5F5F5"/>
<path d="M132.979 58.7362C129.24 54.8688 124.042 50.2417 117.386 44.855C110.057 38.9157 105.121 34.2541 102.579 30.8702C100.036 27.4171 98.7645 23.6533 98.7645 19.5787C98.7645 13.5014 101.831 8.73619 107.963 5.28315C114.096 1.76105 122.098 0 131.97 0C141.842 0 150.442 1.55387 157.771 4.6616C165.175 7.76934 168.877 12.0511 168.877 17.5069C168.877 20.1312 167.98 22.3066 166.185 24.0331C164.39 25.7597 162.296 26.6229 159.903 26.6229C156.463 26.6229 152.424 24.2403 147.787 19.4751C143.076 14.6409 139.075 11.2569 135.784 9.3232C132.568 7.32044 128.791 6.31906 124.454 6.31906C118.92 6.31906 114.358 7.45856 110.768 9.73757C107.253 12.0166 105.495 14.9171 105.495 18.4392C105.495 21.7541 106.954 24.8619 109.87 27.7624C112.787 30.663 120.303 35.9461 132.419 43.6119C145.357 51.8301 154.481 58.2528 159.791 62.8798C165.175 67.5069 169.55 73.1354 172.916 79.7652C176.281 86.395 177.964 93.4047 177.964 100.794C177.964 113.778 172.99 125.242 163.044 135.186C153.172 145.062 141.617 150 128.38 150C116.339 150 106.168 146.029 97.8671 138.087C89.5657 130.145 85.415 119.544 85.415 106.285C85.415 93.5083 89.977 82.8384 99.101 74.2749C108.3 65.7113 119.593 60.5318 132.979 58.7362V58.7362ZM137.915 63.5014C116.452 66.7472 105.72 80.3522 105.72 104.316C105.72 116.678 108.375 126.278 113.684 133.115C119.069 139.952 125.314 143.37 132.419 143.37C139.822 143.37 145.918 140.09 150.704 133.529C155.49 126.899 157.884 117.956 157.884 106.699C157.884 90.4006 151.227 76.0014 137.915 63.5014V63.5014Z" fill="#F5F5F5"/>
<path d="M121.938 92.5488H120.093V117.827H121.938C121.938 114.862 122.512 112.733 123.661 111.442C124.81 110.151 126.825 109.506 129.705 109.506H133.734C136.744 109.506 138.815 110.151 139.948 111.442C141.081 112.733 141.647 114.862 141.647 117.827H143.492V92.5488H141.647C141.647 95.5844 141.064 97.7389 139.899 99.0124C138.734 100.286 136.712 100.923 133.831 100.923H129.899C126.857 100.923 124.77 100.277 123.637 98.9862C122.504 97.6953 121.938 95.5495 121.938 92.5488Z" fill="#F5F5F5"/>
<circle cx="256.099" cy="16.7131" r="10.0279" fill="#F5F5F5"/>
</svg>
