<svg width="244" height="75" viewBox="0 0 244 75" fill="none" xmlns="http://www.w3.org/2000/svg">
    <path fill-rule="evenodd" clip-rule="evenodd"
        d="M71.4285 32.8891H70.4223V32.4766C70.4223 27.9206 68.3036 23.8582 64.9975 21.2208C62.5351 19.2584 59.4227 18.0897 56.0353 18.0897H55.0479C54.2542 18.0897 53.5292 18.0147 53.0104 17.7397C52.4917 17.4647 52.1667 16.9897 52.1667 16.196V15.5961C52.1667 14.3773 51.673 13.2711 50.873 12.4774C50.0731 11.6775 48.9669 11.1837 47.7544 11.1837H39.7985C39.711 10.7525 39.6172 10.315 39.5297 9.88377C39.4422 9.45254 39.3485 9.01506 39.261 8.58382C40.0609 8.27758 40.7859 7.73386 41.3109 6.97763C42.7109 4.96521 42.2171 2.19657 40.2109 0.796624C38.1985 -0.603322 35.4299 -0.109591 34.0299 1.89658C32.63 3.909 33.1237 6.67765 35.1299 8.07759C35.4236 8.28383 35.7299 8.44008 36.0486 8.56507C35.9799 8.87131 35.9174 9.1838 35.8486 9.49004C35.7299 10.0588 35.6049 10.615 35.4799 11.1775H26.9802C25.9802 11.1775 25.0615 11.5087 24.3178 12.0712C23.2553 12.8774 22.5616 14.1524 22.5616 15.5961V16.196C22.5616 16.596 22.4804 16.9085 22.3366 17.1647C21.8992 17.921 20.8742 18.0897 19.6805 18.0897C16.6994 18.0897 13.9307 18.9959 11.637 20.5459C7.80595 23.1333 5.29354 27.5081 5.29354 32.4766V32.8891H4.28733C3.14988 32.8891 2.11242 33.3329 1.3437 34.0578C0.51248 34.8391 0 35.9453 0 37.1765V46.9823C0 48.1698 0.481231 49.2385 1.2562 50.0135C2.03117 50.7884 3.10613 51.2697 4.28733 51.2697H5.29354V52.7259C5.29354 55.682 6.19976 58.5006 7.80595 60.8505C9.1309 62.788 10.9308 64.4004 13.0932 65.5191L31.2675 73.4001C33.3362 74.4625 35.5986 75 37.861 75C40.1234 75 42.3859 74.4688 44.4545 73.4001L62.6288 65.5191C65.185 64.2004 67.2349 62.1817 68.5911 59.7693C69.7785 57.6569 70.4285 55.2445 70.4285 52.7321V51.2759H71.4347C72.4909 51.2759 73.4597 50.8947 74.2096 50.2635C75.1408 49.476 75.7283 48.301 75.7283 46.9886V37.1827C75.7283 36.0015 75.2533 34.9328 74.4784 34.1578C73.7034 33.3829 72.6222 32.8891 71.4347 32.8891H71.4285ZM61.0476 51.7384C61.0476 52.9384 60.7726 54.0946 60.2789 55.132C59.5477 56.657 58.3352 57.9382 56.7728 58.7444L41.4671 65.1441C40.3359 65.7254 39.0985 66.0191 37.8548 66.0191C36.6111 66.0191 35.3799 65.7254 34.2424 65.1441L18.9368 58.7444C17.8118 58.1632 16.8618 57.3382 16.1494 56.3507C15.1994 55.032 14.6619 53.4258 14.6619 51.7384V33.3141C14.6619 31.2579 15.6744 29.4455 17.2306 28.3393C18.2305 27.6268 19.4492 27.2144 20.7679 27.2144H26.3365C27.6364 27.2144 28.8989 27.5331 30.0176 28.1143C31.1363 28.6955 32.1175 29.5518 32.8675 30.6142L33.8924 32.0767C34.8549 33.4516 36.3548 34.1453 37.8548 34.1453C39.3547 34.1453 40.8547 33.4579 41.8171 32.0767L42.8421 30.6142C43.4796 29.6955 44.2983 28.9393 45.2232 28.3768C46.4545 27.6268 47.8856 27.2144 49.3668 27.2144H54.9354C56.3916 27.2144 57.7353 27.7268 58.779 28.5768C60.1539 29.6955 61.0351 31.4017 61.0351 33.3141V51.7384H61.0476ZM27.1802 37.8264H26.3365C25.2615 37.8264 24.2741 38.2264 23.5241 38.8827C22.6304 39.6639 22.0616 40.8138 22.0616 42.095V49.3385C22.0616 50.5197 22.5429 51.5884 23.3116 52.3571C24.0866 53.1321 25.149 53.6071 26.3302 53.6071H27.1739C28.3552 53.6071 29.4239 53.1258 30.1926 52.3571C30.9676 51.5822 31.4425 50.5197 31.4425 49.3385V42.095C31.4425 40.8326 30.8988 39.7014 30.0301 38.9201C29.2739 38.2389 28.2677 37.8202 27.1739 37.8202L27.1802 37.8264ZM49.4981 37.8264H50.3418C51.3543 37.8264 52.2917 38.1827 53.0229 38.7702C53.9917 39.5514 54.6104 40.7513 54.6104 42.095V49.3385C54.6104 50.376 54.2354 51.3322 53.6229 52.0696C52.8417 53.0071 51.6605 53.6071 50.3418 53.6071H49.4981C48.1794 53.6071 46.9982 53.0133 46.217 52.0696C45.5982 51.3259 45.2232 50.376 45.2232 49.3322V42.0888C45.2232 40.9076 45.7045 39.8389 46.4732 39.0701C47.2482 38.2952 48.3106 37.8202 49.4918 37.8202L49.4981 37.8264Z"
        fill="url(#paint0_linear_66_15)" />
    <path
        d="M113.502 25.2894C106.234 25.2894 101.878 30.558 101.878 38.0015C101.878 45.4449 106.059 50.6572 113.615 50.6572C118.771 50.6572 121.114 48.1948 122.089 47.2823C122.946 46.4261 123.577 45.9699 124.727 45.9699C126.62 45.9699 127.933 47.0511 127.933 49.001C127.933 50.2072 127.47 51.0572 126.677 51.9259C125.421 53.2384 121.008 57.1382 113.571 57.1382C102.69 57.1382 94.9029 48.8948 94.9029 38.014C94.9029 27.1331 102.859 18.8334 113.515 18.8334C119.527 18.8334 123.871 21.5271 125.877 23.352C127.133 24.5582 127.42 25.3582 127.42 26.2082C127.42 27.9831 126.27 29.4705 124.264 29.4705C123.408 29.4705 122.664 29.183 121.689 28.4393C119.577 26.7769 117.452 25.2894 113.502 25.2894V25.2894Z"
        fill="#ffffff" />
    <path
        d="M132.045 42.7075C132.045 34.0016 138.176 27.5894 147.045 27.5894C155.001 27.5894 161.407 32.3392 161.407 40.2451V53.1321C161.407 55.1883 160.094 56.682 158.032 56.682C156.082 56.682 154.769 55.3133 154.769 53.4196V53.3071H154.432C153.001 55.2008 150.37 57.1382 145.901 57.1382C138.282 57.1382 132.039 51.4697 132.039 42.7075H132.045ZM146.638 51.1259C151.338 51.1259 154.651 48.551 154.651 43.9637V40.7013C154.651 35.8953 151.563 33.6641 147.045 33.6641C141.264 33.6641 138.801 37.389 138.801 42.37C138.801 48.0386 141.657 51.1259 146.638 51.1259Z"
        fill="#ffffff" />
    <path
        d="M180.318 27.5893C185.18 27.5893 187.818 29.933 188.849 31.3142H189.186V22.352C189.186 20.2959 190.568 18.8022 192.568 18.8022C194.567 18.8022 195.942 20.2896 195.942 22.352V43.6325C195.942 51.8197 189.474 57.1445 181.405 57.1445C172.65 57.1445 166.581 50.676 166.581 42.0263C166.581 33.3766 172.712 27.5956 180.318 27.5956V27.5893ZM181.237 33.5454C176.199 33.5454 173.331 36.5765 173.331 42.3013C173.331 47.2823 175.793 51.0072 181.63 51.0072C186.099 51.0072 189.186 48.2573 189.186 43.5075V40.7576C189.186 36.114 185.868 33.5454 181.224 33.5454H181.237V33.5454Z"
        fill="#ffffff" />
    <path
        d="M214.742 27.5893C219.604 27.5893 222.241 29.933 223.273 31.3142H223.61V22.352C223.61 20.2959 224.991 18.8022 226.991 18.8022C228.991 18.8022 230.366 20.2896 230.366 22.352V43.6325C230.366 51.8197 223.898 57.1445 215.829 57.1445C207.073 57.1445 201.005 50.676 201.005 42.0263C201.005 33.3766 207.136 27.5956 214.742 27.5956V27.5893ZM215.66 33.5454C210.623 33.5454 207.755 36.5765 207.755 42.3013C207.755 47.2823 210.217 51.0072 216.054 51.0072C220.523 51.0072 223.61 48.2573 223.61 43.5075V40.7576C223.61 36.114 220.292 33.5454 215.654 33.5454H215.667H215.66Z"
        fill="#ffffff" />
    <path
        d="M236.941 32.0079C236.941 30.0018 238.253 28.5143 240.316 28.5143C242.378 28.5143 243.691 30.0018 243.691 32.0079V53.5883C243.691 55.6445 242.322 57.1382 240.316 57.1382C238.31 57.1382 236.941 55.6508 236.941 53.5883V32.0079Z"
        fill="#ffffff" />
    <path
        d="M236.854 22.1833C236.854 20.2206 238.29 18.7459 240.267 18.7459C242.243 18.7459 243.728 20.2206 243.728 22.1833C243.728 24.146 242.292 25.6207 240.267 25.6207C238.242 25.6207 236.854 24.146 236.854 22.1833Z"
        fill="#ffffff" />
    <defs>
        <linearGradient id="paint0_linear_66_15" x1="18.7993" y1="8.36508" x2="51.9542" y2="67.0191"
            gradientUnits="userSpaceOnUse">
            <stop stop-color="#90E4E4" />
            <stop offset="0.62" stop-color="#02BBBE" />
            <stop offset="1" stop-color="#00BFC2" />
        </linearGradient>
    </defs>
</svg>