<svg width="369" height="51" viewBox="0 0 369 51" fill="none" xmlns="http://www.w3.org/2000/svg">
<path d="M4 41.357C12.2822 41.357 14.3528 7.19287 24.7055 7.19287C34.023 7.19287 32.9878 39.2865 44.3758 39.2865C55.7639 39.2865 55.7639 7.19287 67.1519 7.19287C78.54 7.19287 76.4694 41.357 88.8927 41.357" stroke="#3076F6" stroke-width="6.21166" stroke-linecap="square" stroke-linejoin="round"/>
<path d="M124.972 21.8362V40H119.894V17.2005H124.677L124.972 21.8362ZM124.151 27.7574L122.423 27.7363C122.423 26.163 122.619 24.709 123.013 23.3745C123.406 22.0399 123.982 20.881 124.741 19.8977C125.499 18.9003 126.44 18.1347 127.564 17.6008C128.702 17.053 130.016 16.7791 131.505 16.7791C132.544 16.7791 133.492 16.9336 134.349 17.2426C135.22 17.5376 135.972 18.0082 136.604 18.6544C137.25 19.3006 137.742 20.1294 138.079 21.1409C138.43 22.1523 138.606 23.3745 138.606 24.8073V40H133.527V25.2499C133.527 24.1401 133.359 23.2691 133.022 22.637C132.699 22.0048 132.228 21.5553 131.61 21.2884C131.006 21.0074 130.282 20.867 129.44 20.867C128.484 20.867 127.67 21.0496 126.995 21.4148C126.335 21.7801 125.794 22.2788 125.373 22.9109C124.951 23.5431 124.642 24.2735 124.446 25.1024C124.249 25.9312 124.151 26.8162 124.151 27.7574ZM138.29 26.4088L135.909 26.9356C135.909 25.5589 136.098 24.2595 136.478 23.0373C136.871 21.8011 137.44 20.7195 138.184 19.7923C138.943 18.8511 139.877 18.1136 140.987 17.5798C142.097 17.046 143.368 16.7791 144.801 16.7791C145.967 16.7791 147.006 16.9406 147.919 17.2637C148.847 17.5728 149.633 18.0644 150.279 18.7387C150.926 19.413 151.417 20.291 151.754 21.3727C152.092 22.4403 152.26 23.7327 152.26 25.2499V40H147.161V25.2288C147.161 24.0769 146.992 23.1848 146.655 22.5527C146.332 21.9205 145.868 21.4851 145.264 21.2462C144.66 20.9934 143.937 20.867 143.094 20.867C142.307 20.867 141.612 21.0145 141.008 21.3095C140.418 21.5904 139.919 21.9908 139.512 22.5105C139.104 23.0163 138.795 23.5992 138.585 24.2595C138.388 24.9197 138.29 25.6362 138.29 26.4088ZM167.537 40.4214C165.851 40.4214 164.327 40.1475 162.965 39.5996C161.616 39.0377 160.464 38.2581 159.509 37.2607C158.568 36.2633 157.844 35.0903 157.338 33.7417C156.833 32.3931 156.58 30.9392 156.58 29.3799V28.537C156.58 26.753 156.84 25.1375 157.36 23.6906C157.879 22.2436 158.603 21.0074 159.53 19.9819C160.457 18.9424 161.553 18.1487 162.817 17.6008C164.081 17.053 165.451 16.7791 166.926 16.7791C168.556 16.7791 169.981 17.053 171.204 17.6008C172.426 18.1487 173.437 18.9213 174.238 19.9187C175.053 20.9021 175.657 22.0751 176.05 23.4377C176.457 24.8003 176.661 26.3034 176.661 27.947V30.1174H159.045V26.472H171.646V26.0716C171.618 25.1585 171.435 24.3016 171.098 23.5009C170.775 22.7002 170.276 22.054 169.602 21.5623C168.928 21.0706 168.029 20.8248 166.905 20.8248C166.062 20.8248 165.311 21.0074 164.65 21.3727C164.004 21.7239 163.463 22.2366 163.028 22.9109C162.592 23.5852 162.255 24.4 162.016 25.3552C161.792 26.2964 161.679 27.357 161.679 28.537V29.3799C161.679 30.3773 161.813 31.3044 162.08 32.1614C162.361 33.0042 162.768 33.7417 163.302 34.3739C163.836 35.006 164.482 35.5047 165.24 35.87C165.999 36.2212 166.863 36.3968 167.832 36.3968C169.054 36.3968 170.143 36.1509 171.098 35.6592C172.053 35.1676 172.882 34.4722 173.585 33.5732L176.261 36.165C175.769 36.8814 175.13 37.5697 174.343 38.23C173.557 38.8762 172.594 39.403 171.456 39.8104C170.333 40.2177 169.026 40.4214 167.537 40.4214ZM193.476 35.4275V24.5545C193.476 23.7397 193.329 23.0373 193.034 22.4473C192.739 21.8573 192.289 21.4008 191.685 21.0777C191.095 20.7546 190.351 20.593 189.452 20.593C188.623 20.593 187.906 20.7335 187.302 21.0145C186.698 21.2954 186.228 21.6747 185.891 22.1523C185.553 22.6299 185.385 23.1708 185.385 23.7748H180.328C180.328 22.8758 180.545 22.0048 180.981 21.162C181.416 20.3191 182.048 19.5675 182.877 18.9073C183.706 18.247 184.696 17.7273 185.848 17.348C187 16.9687 188.293 16.7791 189.726 16.7791C191.439 16.7791 192.957 17.067 194.277 17.643C195.612 18.219 196.658 19.0899 197.417 20.2559C198.189 21.4078 198.576 22.8547 198.576 24.5966V34.7321C198.576 35.7716 198.646 36.7058 198.786 37.5346C198.941 38.3494 199.159 39.0588 199.44 39.6629V40H194.235C193.996 39.4521 193.806 38.7568 193.666 37.9139C193.54 37.057 193.476 36.2282 193.476 35.4275ZM194.214 26.1349L194.256 29.2745H190.611C189.669 29.2745 188.841 29.3658 188.124 29.5485C187.408 29.717 186.811 29.9699 186.333 30.307C185.855 30.6442 185.497 31.0516 185.258 31.5292C185.02 32.0068 184.9 32.5477 184.9 33.1517C184.9 33.7558 185.041 34.3107 185.322 34.8164C185.603 35.308 186.01 35.6944 186.544 35.9753C187.092 36.2563 187.752 36.3968 188.524 36.3968C189.564 36.3968 190.47 36.186 191.243 35.7646C192.029 35.3291 192.647 34.8023 193.097 34.1842C193.547 33.5521 193.785 32.955 193.813 32.3931L195.457 34.6478C195.288 35.2238 195 35.8419 194.593 36.5021C194.186 37.1624 193.652 37.7945 192.992 38.3986C192.345 38.9886 191.566 39.4732 190.653 39.8525C189.754 40.2318 188.714 40.4214 187.534 40.4214C186.045 40.4214 184.718 40.1264 183.552 39.5364C182.386 38.9324 181.472 38.1246 180.812 37.1132C180.152 36.0877 179.822 34.9288 179.822 33.6364C179.822 32.4283 180.047 31.3606 180.496 30.4335C180.96 29.4923 181.634 28.7056 182.519 28.0735C183.418 27.4413 184.514 26.9637 185.806 26.6406C187.099 26.3034 188.574 26.1349 190.231 26.1349H194.214ZM208.922 22.068V40H203.844V17.2005H208.627L208.922 22.068ZM208.016 27.7574L206.372 27.7363C206.386 26.1208 206.611 24.6388 207.046 23.2902C207.496 21.9416 208.114 20.7827 208.901 19.8134C209.701 18.8441 210.657 18.0995 211.766 17.5798C212.876 17.046 214.112 16.7791 215.475 16.7791C216.571 16.7791 217.561 16.9336 218.446 17.2426C219.345 17.5376 220.111 18.0223 220.743 18.6966C221.389 19.3709 221.881 20.2489 222.218 21.3305C222.555 22.3982 222.724 23.7116 222.724 25.2709V40H217.624V25.2499C217.624 24.1541 217.463 23.2902 217.14 22.658C216.831 22.0118 216.374 21.5553 215.77 21.2884C215.18 21.0074 214.443 20.867 213.558 20.867C212.687 20.867 211.907 21.0496 211.219 21.4148C210.53 21.7801 209.947 22.2788 209.47 22.9109C209.006 23.5431 208.648 24.2735 208.395 25.1024C208.142 25.9312 208.016 26.8162 208.016 27.7574ZM234.44 40H229.34V15.7255C229.34 13.8852 229.705 12.3329 230.436 11.0686C231.18 9.80434 232.241 8.84207 233.618 8.18183C235.008 7.52158 236.659 7.19146 238.57 7.19146C239.693 7.19146 240.775 7.31087 241.815 7.54968C242.868 7.78849 243.957 8.09052 245.081 8.45576L244.301 12.5858C243.585 12.347 242.791 12.1222 241.92 11.9115C241.049 11.6867 240.045 11.5744 238.907 11.5744C237.376 11.5744 236.245 11.9256 235.514 12.6279C234.798 13.3163 234.44 14.3488 234.44 15.7255V40ZM239.012 17.2005V20.9091H225.842V17.2005H239.012ZM247.483 17.2005V40H242.405V17.2005H247.483ZM258.187 22.068V40H253.109V17.2005H257.892L258.187 22.068ZM257.281 27.7574L255.638 27.7363C255.652 26.1208 255.876 24.6388 256.312 23.2902C256.761 21.9416 257.38 20.7827 258.166 19.8134C258.967 18.8441 259.922 18.0995 261.032 17.5798C262.142 17.046 263.378 16.7791 264.741 16.7791C265.836 16.7791 266.827 16.9336 267.712 17.2426C268.611 17.5376 269.376 18.0223 270.008 18.6966C270.655 19.3709 271.146 20.2489 271.483 21.3305C271.821 22.3982 271.989 23.7116 271.989 25.2709V40H266.89V25.2499C266.89 24.1541 266.728 23.2902 266.405 22.658C266.096 22.0118 265.64 21.5553 265.036 21.2884C264.446 21.0074 263.708 20.867 262.823 20.867C261.952 20.867 261.172 21.0496 260.484 21.4148C259.796 21.7801 259.213 22.2788 258.735 22.9109C258.272 23.5431 257.913 24.2735 257.66 25.1024C257.408 25.9312 257.281 26.8162 257.281 27.7574ZM290.027 35.4275V24.5545C290.027 23.7397 289.879 23.0373 289.584 22.4473C289.289 21.8573 288.839 21.4008 288.235 21.0777C287.645 20.7546 286.901 20.593 286.002 20.593C285.173 20.593 284.457 20.7335 283.853 21.0145C283.248 21.2954 282.778 21.6747 282.441 22.1523C282.104 22.6299 281.935 23.1708 281.935 23.7748H276.878C276.878 22.8758 277.096 22.0048 277.531 21.162C277.967 20.3191 278.599 19.5675 279.427 18.9073C280.256 18.247 281.247 17.7273 282.399 17.348C283.551 16.9687 284.843 16.7791 286.276 16.7791C287.99 16.7791 289.507 17.067 290.827 17.643C292.162 18.219 293.208 19.0899 293.967 20.2559C294.74 21.4078 295.126 22.8547 295.126 24.5966V34.7321C295.126 35.7716 295.196 36.7058 295.337 37.5346C295.491 38.3494 295.709 39.0588 295.99 39.6629V40H290.785C290.546 39.4521 290.357 38.7568 290.216 37.9139C290.09 37.057 290.027 36.2282 290.027 35.4275ZM290.764 26.1349L290.806 29.2745H287.161C286.22 29.2745 285.391 29.3658 284.674 29.5485C283.958 29.717 283.361 29.9699 282.883 30.307C282.406 30.6442 282.047 31.0516 281.809 31.5292C281.57 32.0068 281.45 32.5477 281.45 33.1517C281.45 33.7558 281.591 34.3107 281.872 34.8164C282.153 35.308 282.56 35.6944 283.094 35.9753C283.642 36.2563 284.302 36.3968 285.075 36.3968C286.114 36.3968 287.02 36.186 287.793 35.7646C288.58 35.3291 289.198 34.8023 289.647 34.1842C290.097 33.5521 290.336 32.955 290.364 32.3931L292.007 34.6478C291.839 35.2238 291.551 35.8419 291.143 36.5021C290.736 37.1624 290.202 37.7945 289.542 38.3986C288.896 38.9886 288.116 39.4732 287.203 39.8525C286.304 40.2318 285.264 40.4214 284.084 40.4214C282.595 40.4214 281.268 40.1264 280.102 39.5364C278.936 38.9324 278.023 38.1246 277.362 37.1132C276.702 36.0877 276.372 34.9288 276.372 33.6364C276.372 32.4283 276.597 31.3606 277.046 30.4335C277.51 29.4923 278.184 28.7056 279.069 28.0735C279.968 27.4413 281.064 26.9637 282.356 26.6406C283.649 26.3034 285.124 26.1349 286.782 26.1349H290.764ZM305.472 22.068V40H300.394V17.2005H305.177L305.472 22.068ZM304.566 27.7574L302.922 27.7363C302.936 26.1208 303.161 24.6388 303.597 23.2902C304.046 21.9416 304.664 20.7827 305.451 19.8134C306.252 18.8441 307.207 18.0995 308.317 17.5798C309.426 17.046 310.663 16.7791 312.025 16.7791C313.121 16.7791 314.111 16.9336 314.996 17.2426C315.895 17.5376 316.661 18.0223 317.293 18.6966C317.939 19.3709 318.431 20.2489 318.768 21.3305C319.105 22.3982 319.274 23.7116 319.274 25.2709V40H314.175V25.2499C314.175 24.1541 314.013 23.2902 313.69 22.658C313.381 22.0118 312.924 21.5553 312.32 21.2884C311.73 21.0074 310.993 20.867 310.108 20.867C309.237 20.867 308.457 21.0496 307.769 21.4148C307.081 21.7801 306.498 22.2788 306.02 22.9109C305.556 23.5431 305.198 24.2735 304.945 25.1024C304.692 25.9312 304.566 26.8162 304.566 27.7574ZM333.771 36.3757C334.6 36.3757 335.345 36.2141 336.005 35.891C336.679 35.5539 337.22 35.0903 337.627 34.5003C338.049 33.9103 338.281 33.229 338.323 32.4564H343.106C343.078 33.9314 342.642 35.2729 341.8 36.481C340.957 37.6891 339.84 38.6514 338.449 39.3679C337.058 40.0702 335.52 40.4214 333.834 40.4214C332.093 40.4214 330.575 40.1264 329.283 39.5364C327.991 38.9324 326.916 38.1036 326.059 37.05C325.202 35.9964 324.556 34.7813 324.12 33.4046C323.699 32.0279 323.488 30.5529 323.488 28.9795V28.242C323.488 26.6687 323.699 25.1937 324.12 23.817C324.556 22.4263 325.202 21.2041 326.059 20.1505C326.916 19.0969 327.991 18.2751 329.283 17.6851C330.575 17.0811 332.086 16.7791 333.813 16.7791C335.64 16.7791 337.241 17.1443 338.618 17.8748C339.994 18.5912 341.076 19.5956 341.863 20.888C342.663 22.1664 343.078 23.6554 343.106 25.3552H338.323C338.281 24.5123 338.07 23.7538 337.691 23.0795C337.325 22.3911 336.806 21.8433 336.131 21.4359C335.471 21.0285 334.677 20.8248 333.75 20.8248C332.725 20.8248 331.875 21.0355 331.201 21.457C330.526 21.8643 329.999 22.4263 329.62 23.1427C329.241 23.8451 328.967 24.6388 328.798 25.5238C328.644 26.3947 328.567 27.3008 328.567 28.242V28.9795C328.567 29.9207 328.644 30.8338 328.798 31.7188C328.953 32.6039 329.22 33.3976 329.599 34.0999C329.992 34.7883 330.526 35.3432 331.201 35.7646C331.875 36.172 332.732 36.3757 333.771 36.3757ZM357.055 40.4214C355.37 40.4214 353.845 40.1475 352.483 39.5996C351.134 39.0377 349.982 38.2581 349.027 37.2607C348.086 36.2633 347.362 35.0903 346.857 33.7417C346.351 32.3931 346.098 30.9392 346.098 29.3799V28.537C346.098 26.753 346.358 25.1375 346.878 23.6906C347.398 22.2436 348.121 21.0074 349.048 19.9819C349.975 18.9424 351.071 18.1487 352.335 17.6008C353.6 17.053 354.969 16.7791 356.444 16.7791C358.074 16.7791 359.5 17.053 360.722 17.6008C361.944 18.1487 362.955 18.9213 363.756 19.9187C364.571 20.9021 365.175 22.0751 365.568 23.4377C365.976 24.8003 366.179 26.3034 366.179 27.947V30.1174H348.564V26.472H361.164V26.0716C361.136 25.1585 360.954 24.3016 360.617 23.5009C360.293 22.7002 359.795 22.054 359.12 21.5623C358.446 21.0706 357.547 20.8248 356.423 20.8248C355.58 20.8248 354.829 21.0074 354.169 21.3727C353.522 21.7239 352.982 22.2366 352.546 22.9109C352.111 23.5852 351.773 24.4 351.535 25.3552C351.31 26.2964 351.197 27.357 351.197 28.537V29.3799C351.197 30.3773 351.331 31.3044 351.598 32.1614C351.879 33.0042 352.286 33.7417 352.82 34.3739C353.354 35.006 354 35.5047 354.759 35.87C355.517 36.2212 356.381 36.3968 357.35 36.3968C358.573 36.3968 359.661 36.1509 360.617 35.6592C361.572 35.1676 362.401 34.4722 363.103 33.5732L365.779 36.165C365.287 36.8814 364.648 37.5697 363.862 38.23C363.075 38.8762 362.113 39.403 360.975 39.8104C359.851 40.2177 358.544 40.4214 357.055 40.4214Z" fill="white"/>
</svg>
