<svg version="1.2" xmlns="http://www.w3.org/2000/svg" viewBox="0 0 690 165" width="690" height="165">
	<title>OrangeDAO-svg</title>
	<style>
		.s0 { fill: #ff9131 } 
		.s1 { fill: #ffd889 } 
		.s2 { fill: #1bc02b } 
		.s3 { fill: #a6a6a6 } 
		.s4 { fill: #5648ed } 
		.s5 { fill: #383838 } 
		.s6 { fill: #8e8e8e } 
		.s7 { fill: #ffffff } 
	</style>
	<path id="Layer" class="s0" d="m58 37h-10v10h10z"/>
	<path id="Layer" class="s0" d="m68 37h-10v10h10z"/>
	<path id="Layer" class="s0" d="m78 37h-10v10h10z"/>
	<path id="Layer" class="s0" d="m88 37h-10v10h10z"/>
	<path id="Layer" class="s0" d="m38 47h-10v10h10z"/>
	<path id="Layer" class="s0" d="m48 47h-10v10h10z"/>
	<path id="Layer" class="s0" d="m58 47h-10v10h10z"/>
	<path id="Layer" class="s0" d="m68 47h-10v10h10z"/>
	<path id="Layer" class="s0" d="m78 47h-10v10h10z"/>
	<path id="Layer" class="s0" d="m88 47h-10v10h10z"/>
	<path id="Layer" class="s0" d="m98 47h-10v10h10z"/>
	<path id="Layer" class="s0" d="m108 47h-10v10h10z"/>
	<path id="Layer" class="s0" d="m28 57h-10v10h10z"/>
	<path id="Layer" class="s0" d="m38 57h-10v10h10z"/>
	<path id="Layer" class="s0" d="m48 57h-10v10h10z"/>
	<path id="Layer" class="s0" d="m58 57h-10v10h10z"/>
	<path id="Layer" class="s0" d="m68 57h-10v10h10z"/>
	<path id="Layer" class="s0" d="m78 57h-10v10h10z"/>
	<path id="Layer" class="s0" d="m88 57h-10v10h10z"/>
	<path id="Layer" class="s0" d="m98 57h-10v10h10z"/>
	<path id="Layer" class="s0" d="m108 57h-10v10h10z"/>
	<path id="Layer" class="s0" d="m118 57h-10v10h10z"/>
	<path id="Layer" class="s0" d="m28 67h-10v10h10z"/>
	<path id="Layer" class="s0" d="m38 67h-10v10h10z"/>
	<path id="Layer" class="s0" d="m48 67h-10v10h10z"/>
	<path id="Layer" class="s0" d="m58 67h-10v10h10z"/>
	<path id="Layer" class="s0" d="m68 67h-10v10h10z"/>
	<path id="Layer" class="s0" d="m78 67h-10v10h10z"/>
	<path id="Layer" class="s0" d="m88 67h-10v10h10z"/>
	<path id="Layer" class="s0" d="m98 67h-10v10h10z"/>
	<path id="Layer" class="s0" d="m108 67h-10v10h10z"/>
	<path id="Layer" class="s0" d="m118 67h-10v10h10z"/>
	<path id="Layer" class="s0" d="m18 77h-10v10h10z"/>
	<path id="Layer" class="s0" d="m28 77h-10v10h10z"/>
	<path id="Layer" class="s0" d="m38 77h-10v10h10z"/>
	<path id="Layer" class="s0" d="m48 77h-10v10h10z"/>
	<path id="Layer" class="s0" d="m58 77h-10v10h10z"/>
	<path id="Layer" class="s0" d="m68 77h-10v10h10z"/>
	<path id="Layer" class="s0" d="m78 77h-10v10h10z"/>
	<path id="Layer" class="s0" d="m88 77h-10v10h10z"/>
	<path id="Layer" class="s0" d="m98 77h-10v10h10z"/>
	<path id="Layer" class="s0" d="m108 77h-10v10h10z"/>
	<path id="Layer" class="s0" d="m118 77h-10v10h10z"/>
	<path id="Layer" class="s0" d="m128 77h-10v10h10z"/>
	<path id="Layer" class="s0" d="m18 87h-10v10h10z"/>
	<path id="Layer" class="s0" d="m28 87h-10v10h10z"/>
	<path id="Layer" class="s0" d="m38 87h-10v10h10z"/>
	<path id="Layer" class="s0" d="m48 87h-10v10h10z"/>
	<path id="Layer" class="s0" d="m58 87h-10v10h10z"/>
	<path id="Layer" class="s0" d="m68 87h-10v10h10z"/>
	<path id="Layer" class="s0" d="m78 87h-10v10h10z"/>
	<path id="Layer" class="s0" d="m88 87h-10v10h10z"/>
	<path id="Layer" class="s0" d="m98 87h-10v10h10z"/>
	<path id="Layer" class="s0" d="m108 87h-10v10h10z"/>
	<path id="Layer" class="s0" d="m118 87h-10v10h10z"/>
	<path id="Layer" class="s0" d="m128 87h-10v10h10z"/>
	<path id="Layer" class="s0" d="m18 97h-10v10h10z"/>
	<path id="Layer" class="s0" d="m28 97h-10v10h10z"/>
	<path id="Layer" class="s0" d="m38 97h-10v10h10z"/>
	<path id="Layer" class="s0" d="m48 97h-10v10h10z"/>
	<path id="Layer" class="s0" d="m58 97h-10v10h10z"/>
	<path id="Layer" class="s0" d="m68 97h-10v10h10z"/>
	<path id="Layer" class="s0" d="m78 97h-10v10h10z"/>
	<path id="Layer" class="s0" d="m88 97h-10v10h10z"/>
	<path id="Layer" class="s0" d="m98 97h-10v10h10z"/>
	<path id="Layer" class="s0" d="m108 97h-10v10h10z"/>
	<path id="Layer" class="s0" d="m118 97h-10v10h10z"/>
	<path id="Layer" class="s0" d="m128 97h-10v10h10z"/>
	<path id="Layer" class="s0" d="m18 107h-10v10h10z"/>
	<path id="Layer" class="s0" d="m28 107h-10v10h10z"/>
	<path id="Layer" class="s0" d="m38 107h-10v10h10z"/>
	<path id="Layer" class="s0" d="m48 107h-10v10h10z"/>
	<path id="Layer" class="s0" d="m58 107h-10v10h10z"/>
	<path id="Layer" class="s0" d="m68 107h-10v10h10z"/>
	<path id="Layer" class="s0" d="m78 107h-10v10h10z"/>
	<path id="Layer" class="s0" d="m88 107h-10v10h10z"/>
	<path id="Layer" class="s0" d="m98 107h-10v10h10z"/>
	<path id="Layer" class="s0" d="m108 107h-10v10h10z"/>
	<path id="Layer" class="s0" d="m118 107h-10v10h10z"/>
	<path id="Layer" class="s0" d="m128 107h-10v10h10z"/>
	<path id="Layer" class="s0" d="m28 117h-10v10h10z"/>
	<path id="Layer" class="s0" d="m38 117h-10v10h10z"/>
	<path id="Layer" class="s0" d="m48 117h-10v10h10z"/>
	<path id="Layer" class="s0" d="m58 117h-10v10h10z"/>
	<path id="Layer" class="s0" d="m68 117h-10v10h10z"/>
	<path id="Layer" class="s1" d="m78 117h-10v10h10z"/>
	<path id="Layer" class="s0" d="m88 117h-10v10h10z"/>
	<path id="Layer" class="s0" d="m98 117h-10v10h10z"/>
	<path id="Layer" class="s0" d="m108 117h-10v10h10z"/>
	<path id="Layer" class="s0" d="m118 117h-10v10h10z"/>
	<path id="Layer" class="s0" d="m28 127h-10v10h10z"/>
	<path id="Layer" class="s0" d="m38 127h-10v10h10z"/>
	<path id="Layer" class="s1" d="m48 127h-10v10h10z"/>
	<path id="Layer" class="s1" d="m58 127h-10v10h10z"/>
	<path id="Layer" class="s1" d="m68 127h-10v10h10z"/>
	<path id="Layer" class="s0" d="m78 127h-10v10h10z"/>
	<path id="Layer" class="s0" d="m88 127h-10v10h10z"/>
	<path id="Layer" class="s0" d="m98 127h-10v10h10z"/>
	<path id="Layer" class="s0" d="m108 127h-10v10h10z"/>
	<path id="Layer" class="s0" d="m118 127h-10v10h10z"/>
	<path id="Layer" class="s0" d="m38 137h-10v10h10z"/>
	<path id="Layer" class="s0" d="m48 137h-10v10h10z"/>
	<path id="Layer" class="s0" d="m58 137h-10v10h10z"/>
	<path id="Layer" class="s0" d="m68 137h-10v10h10z"/>
	<path id="Layer" class="s0" d="m78 137h-10v10h10z"/>
	<path id="Layer" class="s0" d="m88 137h-10v10h10z"/>
	<path id="Layer" class="s0" d="m98 137h-10v10h10z"/>
	<path id="Layer" class="s0" d="m108 137h-10v10h10z"/>
	<path id="Layer" class="s0" d="m58 147h-10v10h10z"/>
	<path id="Layer" class="s0" d="m68 147h-10v10h10z"/>
	<path id="Layer" class="s0" d="m78 147h-10v10h10z"/>
	<path id="Layer" class="s0" d="m88 147h-10v10h10z"/>
	<path id="Layer" class="s2" d="m58 37h-10v10h10z"/>
	<path id="Layer" class="s2" d="m58 37h-10v10h10z"/>
	<path id="Layer" class="s2" d="m58 47h-10v10h10z"/>
	<path id="Layer" class="s2" d="m58 27h-10v10h10z"/>
	<path id="Layer" class="s2" d="m48 17h-10v10h10z"/>
	<path id="Layer" class="s2" d="m38 7h-10v10h10z"/>
	<path id="Layer" class="s2" d="m68 17h-10v10h10z"/>
	<path id="Layer" class="s2" d="m68 27h-10v10h10z"/>
	<path id="Layer" class="s2" d="m78 7h-10v10h10z"/>
	<path id="Layer" class="s3" d="m48 67h-10v10h10z"/>
	<path id="Layer" class="s3" d="m98 67h-10v10h10z"/>
	<path id="Layer" class="s4" d="m48 77h-10v10h10z"/>
	<path id="Layer" class="s4" d="m98 77h-10v10h10z"/>
	<path id="Layer" class="s4" d="m48 87h-10v10h10z"/>
	<path id="Layer" class="s4" d="m98 87h-10v10h10z"/>
	<path id="Layer" class="s5" d="m118 77h-10v10h10z"/>
	<path id="Layer" class="s5" d="m108 77h-10v10h10z"/>
	<path id="Layer" class="s4" d="m48 107h-10v-10h10z"/>
	<path id="Layer" class="s4" d="m98 107h-10v-10h10z"/>
	<path id="Layer" class="s5" d="m38 67h-10v10h10z"/>
	<path id="Layer" class="s5" d="m88 67h-10v10h10z"/>
	<path id="Layer" class="s5" d="m38 77h-10v10h10z"/>
	<path id="Layer" class="s5" d="m88 77h-10v10h10z"/>
	<path id="Layer" class="s5" d="m38 87h-10v10h10z"/>
	<path id="Layer" class="s5" d="m88 87h-10v10h10z"/>
	<path id="Layer" class="s4" d="m38 97h-10v10h10z"/>
	<path id="Layer" class="s4" d="m88 97h-10v10h10z"/>
	<path id="Layer" class="s6" d="m118 77h-10v10h10z"/>
	<path id="Layer" class="s6" d="m108 77h-10v10h10z"/>
	<path id="Layer" class="s4" d="m48 97h-10v10h10z"/>
	<path id="Layer" class="s4" d="m98 97h-10v10h10z"/>
	<path id="Layer" class="s4" d="m48 77h-10v10h10z"/>
	<path id="Layer" class="s4" d="m98 77h-10v10h10z"/>
	<path id="Layer" class="s4" d="m48 87h-10v10h10z"/>
	<path id="Layer" class="s4" d="m98 87h-10v10h10z"/>
	<path id="Layer" class="s6" d="m48 67h-10v10h10z"/>
	<path id="Layer" class="s6" d="m98 67h-10v10h10z"/>
	<path id="Layer" class="s4" d="m38 97h-10v10h10z"/>
	<path id="Layer" class="s4" d="m88 97h-10v10h10z"/>
	<path id="Layer" class="s6" d="m38 77h-10v10h10z"/>
	<path id="Layer" class="s6" d="m88 77h-10v10h10z"/>
	<path id="Layer" class="s6" d="m38 87h-10v10h10z"/>
	<path id="Layer" class="s6" d="m88 87h-10v10h10z"/>
	<path id="Layer" class="s6" d="m38 67h-10v10h10z"/>
	<path id="Layer" class="s6" d="m88 67h-10v10h10z"/>
	<path id="Layer" class="s4" d="m28 97h-10v10h10z"/>
	<path id="Layer" class="s4" d="m78 97h-10v10h10z"/>
	<path id="Layer" class="s6" d="m28 77h-10v10h10z"/>
	<path id="Layer" class="s6" d="m78 77h-10v10h10z"/>
	<path id="Layer" class="s6" d="m28 87h-10v10h10z"/>
	<path id="Layer" class="s6" d="m78 87h-10v10h10z"/>
	<path id="Layer" class="s6" d="m28 67h-10v10h10z"/>
	<path id="Layer" class="s6" d="m78 67h-10v10h10z"/>
	<path id="Layer" class="s4" d="m18 97h-10v10h10z"/>
	<path id="Layer" class="s4" d="m68 97h-10v10h10z"/>
	<path id="Layer" class="s6" d="m18 77h-10v10h10z"/>
	<path id="Layer" class="s6" d="m68 77h-10v10h10z"/>
	<path id="Layer" class="s6" d="m18 87h-10v10h10z"/>
	<path id="Layer" class="s6" d="m68 87h-10v10h10z"/>
	<path id="Layer" class="s6" d="m18 67h-10v10h10z"/>
	<path id="Layer" class="s6" d="m68 67h-10v10h10z"/>
	<path id="Layer" class="s4" d="m118 77h-10v10h10z"/>
	<path id="Layer" class="s4" d="m118 77h-10v10h10z"/>
	<path id="Layer" class="s4" d="m128 77h-10v10h10z"/>
	<path id="Layer" class="s4" d="m108 77h-10v10h10z"/>
	<path id="Layer" class="s4" d="m38 77h-10v10h10z"/>
	<path id="Layer" class="s7" d="m38 77h-10v10h10z"/>
	<path id="Layer" class="s4" d="m88 77h-10v10h10z"/>
	<path id="Layer" class="s7" d="m88 77h-10v10h10z"/>
	<path id="Layer" class="s4" d="m28 77h-10v10h10z"/>
	<path id="Layer" class="s7" d="m28 77h-10v10h10z"/>
	<path id="Layer" class="s4" d="m78 77h-10v10h10z"/>
	<path id="Layer" class="s7" d="m78 77h-10v10h10z"/>
	<path id="Layer" class="s4" d="m48 87h-10v10h10z"/>
	<path id="Layer" class="s4" d="m98 87h-10v10h10z"/>
	<path id="Layer" class="s4" d="m48 77h-10v10h10z"/>
	<path id="Layer" class="s4" d="m98 77h-10v10h10z"/>
	<path id="Layer" class="s4" d="m38 87h-10v10h10z"/>
	<path id="Layer" class="s7" d="m38 87h-10v10h10z"/>
	<path id="Layer" class="s4" d="m88 87h-10v10h10z"/>
	<path id="Layer" class="s7" d="m88 87h-10v10h10z"/>
	<path id="Layer" class="s4" d="m28 87h-10v10h10z"/>
	<path id="Layer" class="s7" d="m28 87h-10v10h10z"/>
	<path id="Layer" class="s4" d="m78 87h-10v10h10z"/>
	<path id="Layer" class="s7" d="m78 87h-10v10h10z"/>
	<path id="Layer" class="s4" d="m48 97h-10v10h10z"/>
	<path id="Layer" class="s4" d="m98 97h-10v10h10z"/>
	<path id="Layer" class="s4" d="m38 97h-10v10h10z"/>
	<path id="Layer" class="s4" d="m38 97h-10v10h10z"/>
	<path id="Layer" class="s4" d="m88 97h-10v10h10z"/>
	<path id="Layer" class="s4" d="m88 97h-10v10h10z"/>
	<path id="Layer" class="s4" d="m28 97h-10v10h10z"/>
	<path id="Layer" class="s4" d="m28 97h-10v10h10z"/>
	<path id="Layer" class="s4" d="m78 97h-10v10h10z"/>
	<path id="Layer" class="s4" d="m78 97h-10v10h10z"/>
	<path id="Layer" class="s4" d="m58 77h-10v10h10z"/>
	<path id="Layer" class="s4" d="m48 67h-10v10h10z"/>
	<path id="Layer" class="s4" d="m98 67h-10v10h10z"/>
	<path id="Layer" class="s4" d="m38 67h-10v10h10z"/>
	<path id="Layer" class="s4" d="m88 67h-10v10h10z"/>
	<path id="Layer" class="s4" d="m28 67h-10v10h10z"/>
	<path id="Layer" class="s4" d="m78 67h-10v10h10z"/>
	<path id="Layer" class="s4" d="m18 67h-10v10h10z"/>
	<path id="Layer" class="s4" d="m68 67h-10v10h10z"/>
	<path id="Layer" class="s4" d="m18 77h-10v10h10z"/>
	<path id="Layer" class="s4" d="m68 77h-10v10h10z"/>
	<path id="Layer" class="s4" d="m18 87h-10v10h10z"/>
	<path id="Layer" class="s4" d="m68 87h-10v10h10z"/>
	<path id="Layer" class="s4" d="m18 97h-10v10h10z"/>
	<path id="Layer" class="s4" d="m68 97h-10v10h10z"/>
	<path id="Layer" class="s4" d="m128 87h-10v10h10z"/>
	<path id="Layer" fill-rule="evenodd" class="s7" d="m253.1 83.8q0 6.6-2.3 12.2-2.3 5.4-6.4 9.4-4.1 3.8-9.7 6-5.6 2.1-12.1 2.1-6.6 0-12.2-2.1-5.5-2.2-9.6-6-4.1-4-6.3-9.4-2.3-5.6-2.3-12.2 0-6.7 2.3-12.1 2.2-5.4 6.3-9.2 4.1-3.8 9.6-5.9 5.6-2 12.2-2 6.5 0 12.1 2 5.6 2.1 9.7 5.9 4.1 3.8 6.4 9.2 2.3 5.4 2.3 12.1zm-14.5 0q0-3.6-1.2-6.8-1.2-3.2-3.3-5.4-2-2.3-5-3.5-3-1.4-6.5-1.4-3.6 0-6.5 1.4-2.9 1.2-5.1 3.5-2.1 2.2-3.3 5.4-1.1 3.2-1.1 6.8 0 3.8 1.2 7 1.2 3.2 3.2 5.5 2.2 2.3 5.1 3.6 2.9 1.3 6.5 1.3 3.5 0 6.5-1.3 2.9-1.3 5-3.6 2.1-2.3 3.3-5.5 1.2-3.2 1.2-7zm48.2-0.6q-0.9-0.2-1.8-0.3-0.8-0.1-1.5-0.1-2.7 0-4.5 1-1.7 0.9-2.8 2.3-1 1.3-1.5 2.9-0.5 1.6-0.5 2.8v20.2h-12.9v-39.3h12.4v5.6h0.2q1.5-3 4.3-4.9 2.7-1.8 6.4-1.8 0.7 0 1.5 0 0.7 0.1 1.2 0.3zm4-5.2q3.5-3.4 8.1-5 4.7-1.7 9.5-1.7 5 0 8.4 1.3 3.4 1.2 5.6 3.8 2.1 2.5 3 6.5 1.1 3.8 1.1 9.2v19.8h-11.9v-4.2h-0.2q-1.5 2.5-4.6 3.8-3 1.4-6.6 1.4-2.3 0-4.9-0.7-2.5-0.6-4.6-2-2.1-1.4-3.4-3.8-1.4-2.4-1.4-5.9 0-4.2 2.3-6.8 2.4-2.6 6-4.1 3.8-1.4 8.3-1.9 4.5-0.4 8.7-0.4v-0.7q0-2.9-2-4.2-2.1-1.4-5.1-1.4-2.8 0-5.4 1.1-2.5 1.2-4.3 2.9zm23.8 16.8h-1.7q-2.1 0-4.3 0.2-2.2 0.2-3.9 0.8-1.7 0.5-2.8 1.6-1.1 1-1.1 2.8 0 1.1 0.5 1.9 0.6 0.8 1.3 1.2 0.8 0.5 1.9 0.8 1 0.1 1.9 0.1 4 0 6-2.1 2.2-2.2 2.2-5.9zm47.3 17.1v-21.5q0-1.6-0.3-3.2-0.2-1.5-0.9-2.6-0.6-1.1-1.8-1.8-1.1-0.7-2.8-0.7-1.8 0-3.1 0.7-1.3 0.7-2.1 1.8-0.9 1.2-1.4 2.8-0.4 1.5-0.4 3.2v21.3h-13v-39.3h12.6v5.4h0.1q0.7-1.3 1.8-2.4 1.2-1.3 2.7-2.2 1.6-0.8 3.4-1.4 1.8-0.6 3.9-0.6 3.9 0 6.7 1.5 2.8 1.4 4.4 3.7 1.8 2.2 2.5 5.1 0.8 2.9 0.8 5.9v24.3zm64.5-3.7q0 5.8-1.6 10-1.7 4.3-4.7 7-3 2.9-7.3 4.2-4.3 1.5-9.5 1.5-5.2 0-10.8-1.6-5.4-1.6-9.4-4.6l6.4-9.2q2.9 2.5 6.3 3.7 3.4 1.2 6.8 1.2 5.7 0 8.3-3 2.8-3 2.8-8v-2.3h-0.2q-1.8 2.3-4.9 3.8-3.1 1.4-7.1 1.4-4.5 0-7.9-1.6-3.5-1.6-6-4.4-2.3-2.8-3.6-6.4-1.3-3.7-1.3-7.8 0-4.1 1.3-7.9 1.3-3.7 3.6-6.5 2.5-2.9 6-4.5 3.4-1.8 7.9-1.8 3.7 0 7.1 1.6 3.4 1.5 5.4 4.6h0.2v-5h12.2zm-12.3-16.2q0-2-0.7-3.8-0.6-1.8-1.9-3.2-1.3-1.4-3-2.2-1.7-0.8-4-0.8-2.2 0-3.9 0.8-1.7 0.8-2.9 2.1-1.1 1.4-1.8 3.2-0.6 1.8-0.6 3.9 0 1.9 0.6 3.8 0.7 1.8 1.8 3.2 1.2 1.3 2.9 2.2 1.7 0.8 3.9 0.8 2.3 0 4-0.8 1.8-0.9 3-2.2 1.3-1.4 1.9-3.2 0.7-1.8 0.7-3.8zm61.6 0.7q0 0.8 0 1.6 0 0.7 0 1.5h-28.6q0.2 1.6 1 3 0.9 1.3 2.1 2.3 1.4 1 2.9 1.5 1.7 0.6 3.4 0.6 3.1 0 5.3-1.1 2.1-1.2 3.4-3l9 5.7q-2.7 4-7.3 6.2-4.5 2.1-10.5 2.1-4.4 0-8.4-1.3-3.9-1.4-6.9-4-3-2.7-4.7-6.6-1.7-3.9-1.7-8.8 0-4.9 1.7-8.7 1.7-4 4.5-6.7 2.8-2.7 6.7-4.2 3.9-1.5 8.4-1.5 4.3 0 8 1.5 3.6 1.4 6.2 4.2 2.6 2.7 4 6.7 1.5 3.9 1.5 9zm-11.9-5q0-3.1-2-5.3-1.9-2.2-5.7-2.2-1.9 0-3.5 0.6-1.6 0.6-2.8 1.6-1.2 1-1.9 2.5-0.7 1.3-0.8 2.8zm92.7-4q0 7.4-2.8 12.8-2.7 5.3-7.2 8.7-4.4 3.4-10 5.1-5.6 1.6-11.4 1.6h-20.8v-56h20.2q5.9 0 11.7 1.5 5.7 1.3 10.2 4.5 4.6 3.2 7.3 8.6 2.8 5.3 2.8 13.2zm-14.1 0q0-4.7-1.6-7.8-1.5-3.1-4.1-5-2.5-1.8-5.8-2.6-3.3-0.8-6.7-0.8h-6.7v32.7h6.4q3.6 0 6.9-0.8 3.4-0.9 5.9-2.8 2.6-1.9 4.1-5 1.6-3.2 1.6-7.9zm59 28.2l-4.3-11h-21.7l-4.1 11h-14.7l23.5-56h13.1l23.2 56zm-15-41l-7.1 19.2h14.1zm91.5 12.8q0 6.6-2.2 12.1-2.3 5.5-6.4 9.4-4.1 3.9-9.7 6-5.6 2.2-12.2 2.2-6.5 0-12.1-2.2-5.5-2.1-9.7-6-4-3.9-6.3-9.4-2.3-5.5-2.3-12.1 0-6.8 2.3-12.1 2.3-5.5 6.3-9.3 4.2-3.8 9.7-5.8 5.6-2.1 12.1-2.1 6.6 0 12.2 2.1 5.6 2 9.7 5.8 4.1 3.8 6.4 9.3 2.2 5.3 2.2 12.1zm-14.4 0q0-3.7-1.2-6.8-1.2-3.2-3.3-5.4-2.1-2.3-5.1-3.6-2.9-1.3-6.5-1.3-3.5 0-6.4 1.3-3 1.3-5.1 3.6-2.1 2.2-3.3 5.4-1.1 3.1-1.1 6.8 0 3.8 1.2 7 1.2 3.2 3.2 5.4 2.1 2.3 5.1 3.7 2.9 1.2 6.4 1.2 3.6 0 6.5-1.2 2.9-1.4 5.1-3.7 2.1-2.2 3.3-5.4 1.2-3.2 1.2-7z"/>
</svg>