<svg width="508" height="116" viewBox="0 0 508 116" fill="none" xmlns="http://www.w3.org/2000/svg">
    <path
        d="M193.668 101.708C188.074 101.708 182.963 100.792 178.336 98.9615C173.709 97.1315 170.013 94.3297 167.254 90.5633C164.492 86.797 163.074 82.1468 163.008 76.6164L176.369 75.1642C176.369 80.3498 177.974 84.3252 181.187 87.0867C184.396 89.8519 188.594 91.2345 193.771 91.2345C198.948 91.2345 202.849 90.336 205.89 88.539C208.927 86.742 210.448 83.8374 210.448 79.829C210.448 77.6176 209.843 75.905 208.634 74.6948C207.425 73.4845 205.872 72.6044 203.974 72.0506C202.073 71.4968 199.365 70.9101 195.841 70.2866C194.874 70.1473 193.888 69.9749 192.888 69.7695C191.888 69.5605 190.869 69.3551 189.833 69.1461C184.792 68.0422 180.49 66.6926 176.937 65.101C173.379 63.513 170.496 61.2833 168.287 58.4118C166.078 55.5439 164.971 51.9316 164.971 47.5748C164.971 42.7376 166.265 38.7438 168.855 35.5973C171.445 32.4544 174.794 30.1696 178.904 28.754C183.011 27.3384 187.415 26.627 192.111 26.627C200.398 26.627 207.147 28.4606 212.364 32.1243C217.577 35.788 220.563 41.663 221.325 49.7532L208.169 52.0343C207.96 47.0577 206.458 43.3097 203.663 40.7829C200.867 38.2598 196.98 36.9982 192.009 36.9982C189.452 36.9982 187.122 37.3613 185.019 38.0874C182.912 38.8135 181.238 39.9211 179.996 41.4063C178.754 42.8953 178.131 44.7436 178.131 46.955C178.131 49.9292 179.633 52.159 182.637 53.6442C185.641 55.1332 190.078 56.3581 195.947 57.3262H196.259C202.128 58.2944 206.997 59.5046 210.865 60.9569C214.73 62.4092 217.841 64.6022 220.189 67.5398C222.537 70.4773 223.71 74.4014 223.71 79.3083C223.71 87.3948 220.878 93.1525 215.218 96.5741C209.554 99.9957 202.373 101.708 193.672 101.708H193.668Z"
        fill="#ffffff" />
    <path
        d="M245.772 101.708C240.661 101.708 236.397 100.359 232.979 97.6634C229.561 94.9679 227.85 91.1319 227.85 86.1553C227.85 82.7007 228.696 79.8805 230.389 77.7058C232.081 75.5274 234.272 73.8881 236.965 72.7805C239.657 71.6767 242.834 70.8112 246.494 70.1877L261.928 67.2832V66.4544C261.928 64.7271 261.84 63.3261 261.668 62.2553C261.496 61.1844 261.097 60.1979 260.478 59.2994C259.716 58.3312 258.664 57.6051 257.32 57.121C255.971 56.6369 254.264 56.3949 252.191 56.3949C248.461 56.3949 245.768 57.1723 244.112 58.7273C242.456 60.2822 241.625 62.8934 241.625 66.5571L229.608 65.4165C229.678 62.1672 230.264 59.3691 231.37 57.0183C232.473 54.6675 234.063 52.8009 236.137 51.4183C238.067 50.1054 240.452 49.1042 243.284 48.4111C246.116 47.7216 249.326 47.3732 252.916 47.3732C257.404 47.3732 261.203 48.0113 264.31 49.2912C267.416 50.5711 269.783 52.4891 271.406 55.0453C273.029 57.6051 273.839 60.748 273.839 64.4813V91.1282C273.839 92.7859 273.993 94.3775 274.304 95.8994C274.615 97.4214 275.044 98.804 275.597 100.047V100.462H263.269C262.921 98.804 262.683 96.9886 262.544 95.0193C262.405 93.0499 262.405 91.0255 262.544 88.9535L263.683 89.9914C263.13 92.2724 262.079 94.2931 260.525 96.0571C258.972 97.8211 256.953 99.2037 254.466 100.205C251.978 101.206 249.08 101.708 245.765 101.708H245.772ZM248.362 92.6869C252.714 92.6869 256.063 91.6343 258.411 89.5256C260.76 87.4169 261.932 84.428 261.932 80.5553V75.6814L248.465 78.5859L247.842 78.795C245.354 79.4184 243.49 80.2656 242.248 81.3364C241.006 82.4073 240.383 83.9806 240.383 86.0526C240.383 88.1247 241.141 89.8373 242.662 90.9779C244.178 92.1184 246.08 92.6905 248.359 92.6905L248.362 92.6869Z"
        fill="#ffffff" />
    <path
        d="M282.543 100.465V48.62H294.765V60.2345L293.728 59.9227C294.626 55.7053 296.523 52.5624 299.425 50.4867C302.327 48.411 305.987 47.3768 310.405 47.3768C313.72 47.3768 316.516 47.7912 318.794 48.62C321.073 49.4488 323.11 50.7984 324.905 52.6651C326.701 54.5318 327.873 56.7798 328.426 59.4057C328.979 62.0351 329.254 65.2807 329.254 69.1534V100.469H316.823V69.6742C316.823 67.0484 316.633 64.9727 316.256 63.4544C315.875 61.9361 315.098 60.6195 313.926 59.5157C312.819 58.4778 311.68 57.803 310.507 57.495C309.331 57.1832 307.881 57.0292 306.155 57.0292C303.184 57.0292 300.561 58.1368 298.282 60.3482C296.003 62.5596 294.864 66.4653 294.864 72.0653V100.476H282.536L282.543 100.465Z"
        fill="#ffffff" />
    <path
        d="M358.779 101.708C354.222 101.708 350.181 100.619 346.66 98.4408C343.139 96.2624 340.377 93.1195 338.373 89.0048C336.369 84.8937 335.369 80.0711 335.369 74.5408C335.369 69.0104 336.336 64.3969 338.27 60.2822C340.201 56.1711 342.931 52.9915 346.455 50.7434C349.976 48.499 354.017 47.3731 358.574 47.3731C362.578 47.3731 366.066 48.2716 369.037 50.0686C372.005 51.8656 374.251 54.5281 375.771 58.0524L374.115 59.9191V27.8776H386.337V100.462H374.115V88.33L375.463 89.7822C374.221 93.721 372.148 96.6952 369.25 98.7012C366.352 100.707 362.86 101.708 358.786 101.708H358.779ZM361.575 92.6868C363.37 92.6868 364.993 92.3934 366.443 91.8066C367.894 91.2198 369.136 90.4057 370.173 89.3715C371.554 87.8532 372.606 85.8472 373.331 83.3571C374.056 80.867 374.419 77.9661 374.419 74.6471C374.419 68.9114 373.47 64.4519 371.569 61.2724C369.667 58.0928 366.407 56.5011 361.78 56.5011C359.571 56.5011 357.651 56.8129 356.032 57.4327C354.409 58.0561 353.115 59.0243 352.148 60.3372C350.972 61.7895 350.111 63.6891 349.558 66.0399C349.005 68.3907 348.73 71.2255 348.73 74.5408C348.73 80.7606 349.661 85.3411 351.525 88.2786C353.39 91.2162 356.739 92.6868 361.575 92.6868Z"
        fill="#ffffff" />
    <path
        d="M395.755 100.465V27.8812H407.977V60.1281L406.838 59.611C407.805 55.5329 409.754 52.4743 412.688 50.4353C415.623 48.3962 419.195 47.3767 423.408 47.3767C426.859 47.3767 429.742 47.8095 432.058 48.6713C434.369 49.5368 436.425 50.9377 438.22 52.8704C440.015 54.7371 441.173 56.9338 441.689 59.4533C442.206 61.9764 442.466 65.2073 442.466 69.1497V100.465H430.035V69.3588C430.035 66.8026 429.863 64.8149 429.519 63.3957C429.171 61.9801 428.413 60.7185 427.24 59.611C426.203 58.5731 425.064 57.8837 423.822 57.5389C422.58 57.1942 421.093 57.0218 419.367 57.0218C416.396 57.0218 413.773 58.0927 411.494 60.2344C409.215 62.3761 408.076 66.1792 408.076 71.6398V100.465H395.748H395.755Z"
        fill="#ffffff" />
    <path
        d="M451.38 40.5337V27.2616H463.708V40.5337H451.38ZM451.38 100.465V48.6202H463.708V100.465H451.38Z"
        fill="#ffffff" />
    <path d="M473.028 100.465V27.8812H485.356V100.465H473.028Z" fill="#ffffff" />
    <path d="M494.68 100.465V27.8812H507.008V100.465H494.68Z" fill="#ffffff" />
    <path
        d="M59.3267 0C26.5632 0 0 26.5598 0 59.3267C0 96.7497 39.2486 129.791 60.3852 108.651C68.3743 100.662 68.0561 88.9616 68.0561 88.5764C68.0561 77.4486 60.8374 70.431 56.1076 65.5404C42.1929 51.1467 33.5373 45.0033 33.5373 35.795C33.5373 27.7356 39.885 22.222 46.7955 22.222C53.7059 22.222 56.7374 26.4024 60.7068 31.3834C69.3189 33.2693 81.3946 35.9926 88.5663 38.3341C93.3196 39.885 93.8991 40.4276 93.4536 40.8698C91.7084 42.615 74.0185 39.7443 63.5742 39.7443C60.5896 39.7443 57.2264 40.1999 55.1362 42.2901C44.8191 52.6072 72.8461 63.2526 90.2445 92.1338C93.065 96.8133 95.1452 101.262 96.6525 105.432C110.068 94.5556 118.647 77.9444 118.647 59.3267C118.647 26.5598 92.0835 0 59.32 0H59.3267Z"
        fill="#ffffff" />
</svg>