<svg width="319" height="380" viewBox="0 0 319 380" fill="none" xmlns="http://www.w3.org/2000/svg">
<path d="M252.158 326.273C252.243 296.6 210.791 272.427 159.575 272.282C108.358 272.137 66.7702 296.074 66.6861 325.747C66.602 355.42 108.053 379.592 159.27 379.737C210.487 379.882 252.074 355.945 252.158 326.273Z" fill="url(#paint0_linear_525_26047)"/>
<path d="M241.899 271.022C241.899 271.457 241.826 271.82 241.826 272.255C241.826 272.618 241.754 272.98 241.681 273.343C241.609 273.778 241.536 274.14 241.464 274.575C241.391 274.938 241.319 275.3 241.246 275.663C241.173 276.098 241.028 276.46 240.956 276.895C240.883 277.258 240.738 277.62 240.666 277.983C240.521 278.418 240.376 278.781 240.303 279.143C240.158 279.506 240.013 279.868 239.868 280.231C239.723 280.666 239.506 281.101 239.361 281.463C239.216 281.826 239.071 282.188 238.853 282.478C238.636 282.913 238.418 283.276 238.201 283.711C237.983 284.146 237.693 284.581 237.476 285.016C237.403 285.089 237.331 285.234 237.331 285.306C236.968 285.959 236.533 286.539 236.098 287.191C236.026 287.336 235.953 287.409 235.881 287.554C235.445 288.206 235.01 288.787 234.503 289.367C234.43 289.512 234.285 289.584 234.213 289.729C233.778 290.237 233.343 290.817 232.835 291.324C232.69 291.469 232.618 291.614 232.473 291.759C231.893 292.339 231.313 292.992 230.733 293.572C230.588 293.644 230.515 293.79 230.37 293.862C229.935 294.297 229.427 294.732 228.992 295.167C228.63 295.53 228.195 295.892 227.832 296.182C227.47 296.472 227.107 296.835 226.672 297.125C226.237 297.487 225.802 297.777 225.367 298.14C224.932 298.43 224.569 298.72 224.134 299.083C223.699 299.445 223.192 299.735 222.757 300.098C222.322 300.388 221.887 300.678 221.452 300.968C220.944 301.258 220.437 301.62 219.929 301.91C219.276 302.273 218.696 302.708 218.044 303.07C216.811 303.795 215.506 304.448 214.273 305.101C213.911 305.318 213.548 305.463 213.186 305.681C212.171 306.188 211.156 306.696 210.141 307.131C209.778 307.276 209.416 307.421 209.126 307.566C207.748 308.146 206.37 308.726 204.993 309.233C204.775 309.306 204.485 309.378 204.268 309.523C203.107 309.959 201.875 310.394 200.715 310.756C200.207 310.901 199.7 311.046 199.192 311.264C198.54 311.481 197.887 311.699 197.162 311.844C196.582 311.989 196.002 312.206 195.422 312.351C194.769 312.569 194.044 312.714 193.392 312.931C192.811 313.076 192.231 313.221 191.651 313.366C190.926 313.511 190.274 313.729 189.549 313.874C188.969 314.019 188.389 314.164 187.809 314.236C187.083 314.381 186.358 314.526 185.633 314.671C185.053 314.744 184.546 314.889 183.966 314.961C182.443 315.252 180.848 315.469 179.325 315.687C179.108 315.687 178.89 315.759 178.673 315.759C177.295 315.977 175.917 316.122 174.54 316.267C174.032 316.339 173.525 316.339 172.945 316.412C172.075 316.484 171.204 316.557 170.262 316.629C169.682 316.702 169.174 316.702 168.594 316.774C167.652 316.847 166.709 316.847 165.839 316.919C165.331 316.919 164.824 316.992 164.244 316.992C163.446 316.992 162.649 316.992 161.851 317.064C161.271 317.064 160.691 317.064 160.183 317.064C159.313 317.064 158.443 317.064 157.646 317.064C157.138 317.064 156.631 317.064 156.123 317.064C155.325 317.064 154.528 316.992 153.73 316.992C153.15 316.992 152.643 316.919 152.063 316.919C151.193 316.847 150.395 316.774 149.525 316.774C149.017 316.774 148.582 316.702 148.075 316.702C147.06 316.629 146.045 316.484 144.957 316.412C144.667 316.412 144.377 316.339 144.087 316.339C142.782 316.194 141.477 316.049 140.172 315.832C139.954 315.832 139.737 315.759 139.519 315.759C138.431 315.614 137.271 315.397 136.184 315.252C135.749 315.179 135.241 315.106 134.806 314.961C133.936 314.816 133.066 314.671 132.268 314.454C131.833 314.381 131.398 314.236 130.963 314.164C130.021 313.946 129.078 313.729 128.208 313.511C127.7 313.366 127.193 313.221 126.685 313.149C125.815 312.931 125.018 312.714 124.22 312.496C123.713 312.351 123.278 312.206 122.842 312.061C121.537 311.699 120.232 311.264 118.927 310.829C118.71 310.756 118.492 310.684 118.202 310.611C116.752 310.104 115.302 309.596 113.852 309.016C113.272 308.798 112.692 308.581 112.111 308.291C111.676 308.073 111.169 307.928 110.734 307.711C110.081 307.421 109.429 307.131 108.776 306.841C108.341 306.623 107.906 306.478 107.544 306.261C106.818 305.898 106.166 305.608 105.441 305.246C105.078 305.101 104.788 304.883 104.426 304.738C103.411 304.23 102.396 303.65 101.453 303.07C91.302 297.197 84.2689 290.164 80.4985 282.768C78.2508 278.273 77.0907 273.705 77.0907 269.065L77.0182 311.844C77.0182 324.17 85.1389 336.496 101.38 345.849C102.323 346.429 103.338 346.937 104.353 347.517C104.716 347.662 105.006 347.88 105.368 348.025C106.021 348.387 106.746 348.75 107.399 349.04C107.834 349.257 108.269 349.402 108.631 349.62C109.284 349.91 109.936 350.2 110.516 350.49C110.951 350.707 111.459 350.852 111.894 351.07C112.329 351.215 112.764 351.432 113.199 351.65C113.344 351.722 113.489 351.722 113.634 351.795C115.084 352.375 116.534 352.883 117.985 353.39C118.202 353.463 118.42 353.535 118.71 353.608C120.015 354.043 121.32 354.405 122.625 354.84C122.842 354.913 123.06 354.985 123.278 355.058C123.495 355.13 123.785 355.203 124.003 355.275C124.8 355.493 125.67 355.71 126.54 355.928C127.048 356.073 127.555 356.218 128.063 356.29C129.006 356.508 129.876 356.725 130.818 356.943C131.181 357.015 131.543 357.088 131.833 357.16C131.906 357.16 132.051 357.16 132.123 357.233C132.993 357.378 133.791 357.595 134.661 357.74C135.096 357.813 135.604 357.886 136.039 358.031C137.126 358.248 138.286 358.393 139.374 358.538C139.592 358.538 139.809 358.611 139.954 358.611C141.259 358.828 142.564 358.973 143.869 359.118C144.159 359.118 144.449 359.191 144.74 359.191C145.755 359.263 146.77 359.408 147.857 359.481H147.93C148.365 359.553 148.872 359.553 149.307 359.553C150.178 359.626 150.975 359.698 151.845 359.698C152.425 359.698 152.933 359.771 153.513 359.771C154.31 359.771 155.108 359.843 155.906 359.843C155.978 359.843 156.051 359.843 156.123 359.843C156.558 359.843 156.993 359.843 157.428 359.843C158.298 359.843 159.168 359.843 160.038 359.843C160.618 359.843 161.126 359.843 161.706 359.843C162.504 359.843 163.301 359.843 164.099 359.771C164.244 359.771 164.389 359.771 164.534 359.771C164.896 359.771 165.259 359.698 165.621 359.698C166.564 359.626 167.507 359.626 168.377 359.553C168.957 359.553 169.464 359.481 170.044 359.408C170.914 359.336 171.785 359.263 172.727 359.191C173.017 359.191 173.38 359.118 173.67 359.118C173.887 359.118 174.105 359.046 174.322 359.046C175.7 358.901 177.078 358.756 178.455 358.538C178.673 358.538 178.89 358.466 179.108 358.466C180.703 358.248 182.226 358.031 183.748 357.74C183.893 357.74 184.038 357.668 184.183 357.668C184.618 357.595 184.981 357.523 185.416 357.45C186.141 357.305 186.866 357.16 187.591 357.015C188.171 356.87 188.751 356.798 189.331 356.653C190.056 356.508 190.709 356.363 191.434 356.145C192.014 356 192.594 355.855 193.174 355.71C193.827 355.565 194.552 355.348 195.204 355.13C195.784 354.985 196.364 354.84 196.944 354.623C197.597 354.405 198.25 354.188 198.975 354.043C199.265 353.97 199.555 353.898 199.845 353.753C200.062 353.68 200.28 353.608 200.497 353.535C201.73 353.1 202.89 352.738 204.05 352.302C204.268 352.23 204.558 352.157 204.775 352.012C206.153 351.505 207.53 350.925 208.908 350.345C209.271 350.2 209.633 350.055 209.923 349.91C210.938 349.475 211.953 348.967 212.968 348.46C213.331 348.242 213.693 348.097 214.056 347.88C215.361 347.227 216.594 346.502 217.826 345.849C218.189 345.632 218.479 345.487 218.841 345.269C219.131 345.052 219.421 344.907 219.712 344.689C220.219 344.399 220.727 344.037 221.234 343.747C221.669 343.457 222.104 343.167 222.539 342.877C223.047 342.587 223.482 342.224 223.917 341.862C224.352 341.571 224.714 341.281 225.15 340.919C225.585 340.556 226.02 340.266 226.455 339.904C226.817 339.614 227.252 339.251 227.615 338.961C228.05 338.599 228.412 338.236 228.775 337.946C228.92 337.801 229.137 337.656 229.282 337.511C229.572 337.221 229.935 336.931 230.225 336.641C230.37 336.569 230.443 336.423 230.588 336.351C231.168 335.771 231.748 335.191 232.328 334.538C232.473 334.393 232.618 334.248 232.69 334.103C233.125 333.596 233.633 333.088 234.068 332.508C234.14 332.363 234.285 332.291 234.358 332.146C234.43 332.073 234.43 332.073 234.503 332.001C234.938 331.421 235.373 330.913 235.736 330.333C235.808 330.188 235.881 330.115 235.953 329.97C236.388 329.318 236.823 328.738 237.186 328.085C237.258 328.013 237.331 327.868 237.403 327.795C237.548 327.578 237.693 327.288 237.838 327.07C237.983 326.853 238.056 326.635 238.128 326.49C238.346 326.055 238.563 325.692 238.781 325.257C238.926 324.895 239.143 324.532 239.288 324.242C239.506 323.807 239.651 323.445 239.796 323.01C239.868 322.792 239.941 322.647 240.013 322.43C240.086 322.285 240.086 322.067 240.158 321.922C240.303 321.56 240.448 321.125 240.521 320.69C240.666 320.327 240.738 319.964 240.811 319.602C240.883 319.167 241.029 318.804 241.101 318.369C241.174 318.152 241.246 317.934 241.246 317.717C241.246 317.572 241.319 317.427 241.319 317.282C241.391 316.847 241.464 316.484 241.536 316.049C241.609 315.687 241.609 315.324 241.681 314.961C241.754 314.526 241.754 314.164 241.754 313.729C241.754 313.511 241.826 313.221 241.826 313.004C241.826 312.786 241.826 312.496 241.826 312.279L241.899 269.5C241.971 270.007 241.899 270.515 241.899 271.022Z" fill="url(#paint1_linear_525_26047)"/>
<path d="M241.915 269.562C241.99 243.172 205.109 221.675 159.538 221.546C113.968 221.417 76.9648 242.705 76.89 269.094C76.8152 295.483 113.697 316.98 159.267 317.11C204.838 317.239 241.841 295.951 241.915 269.562Z" fill="url(#paint2_linear_525_26047)"/>
<path d="M159.679 342.514C183.461 342.514 205.793 337.366 222.614 328.085C230.808 323.517 237.261 318.224 241.829 312.424V312.351V296.327C239.726 305.825 231.823 314.671 219.062 321.777C186.361 339.904 132.924 339.904 100.006 321.777C86.8093 314.526 78.761 305.39 76.8033 295.675V311.916V311.989C81.4438 317.934 88.1144 323.445 96.5252 328.085C113.564 337.366 135.969 342.514 159.679 342.514Z" fill="url(#paint3_linear_525_26047)"/>
<path d="M154.816 344.656C158.497 340.975 158.497 335.007 154.816 331.326C151.135 327.645 145.167 327.645 141.486 331.326C137.805 335.007 137.805 340.975 141.486 344.656C145.167 348.337 151.135 348.337 154.816 344.656Z" fill="url(#paint4_linear_525_26047)"/>
<path d="M177.38 344.69C181.061 341.009 181.061 335.041 177.38 331.36C173.699 327.679 167.731 327.679 164.05 331.36C160.369 335.041 160.369 341.009 164.05 344.69C167.731 348.371 173.699 348.371 177.38 344.69Z" fill="url(#paint5_linear_525_26047)"/>
<path d="M229.574 237.814C229.574 238.177 229.501 238.539 229.501 238.902C229.501 239.192 229.429 239.482 229.356 239.844C229.284 240.207 229.284 240.569 229.211 240.859C229.139 241.149 229.066 241.512 228.994 241.802C228.921 242.165 228.849 242.455 228.776 242.817C228.704 243.107 228.631 243.47 228.486 243.76C228.414 244.122 228.269 244.412 228.124 244.775C228.051 245.065 227.906 245.355 227.761 245.717C227.616 246.08 227.471 246.442 227.326 246.805C227.181 247.095 227.036 247.385 226.891 247.675C226.746 248.038 226.529 248.4 226.384 248.763C226.166 249.125 225.948 249.488 225.731 249.85C225.658 249.923 225.658 249.995 225.586 250.14C225.296 250.648 224.933 251.228 224.571 251.735C224.498 251.808 224.426 251.953 224.353 252.025C223.991 252.533 223.556 253.041 223.193 253.621C223.121 253.693 223.048 253.838 222.976 253.911C222.613 254.346 222.251 254.781 221.816 255.216C221.743 255.361 221.598 255.433 221.526 255.578C221.091 256.086 220.583 256.593 220.075 257.101C220.003 257.173 219.858 257.318 219.785 257.391C219.423 257.754 218.988 258.116 218.553 258.479C218.19 258.769 217.9 259.059 217.538 259.349C217.248 259.639 216.885 259.856 216.595 260.146C216.233 260.436 215.87 260.726 215.507 261.016C215.145 261.306 214.855 261.524 214.492 261.814C214.13 262.104 213.695 262.394 213.332 262.684C212.97 262.974 212.607 263.192 212.245 263.409C211.81 263.699 211.375 263.917 210.94 264.207C210.432 264.569 209.852 264.859 209.344 265.222C208.329 265.802 207.242 266.382 206.082 266.962C205.792 267.107 205.429 267.252 205.139 267.469C204.269 267.904 203.399 268.267 202.529 268.702C202.239 268.847 201.949 268.992 201.659 269.065C200.499 269.572 199.338 270.007 198.178 270.515C197.961 270.587 197.743 270.66 197.526 270.732C196.511 271.095 195.496 271.457 194.481 271.82C194.045 271.965 193.61 272.11 193.248 272.255C192.668 272.4 192.088 272.617 191.508 272.762C191 272.907 190.565 273.052 190.058 273.197C189.478 273.342 188.898 273.487 188.317 273.632C187.81 273.778 187.302 273.85 186.867 273.995C186.287 274.14 185.707 274.285 185.055 274.43C184.547 274.575 184.04 274.648 183.605 274.72C183.024 274.865 182.372 274.938 181.792 275.083C181.357 275.155 180.849 275.228 180.414 275.373C179.109 275.59 177.804 275.808 176.426 276.025C176.209 276.025 176.064 276.098 175.846 276.098C174.686 276.243 173.526 276.388 172.366 276.533C171.931 276.605 171.496 276.605 171.061 276.678C170.336 276.75 169.538 276.823 168.813 276.895C168.306 276.895 167.871 276.968 167.363 276.968C166.565 277.04 165.768 277.04 164.97 277.113C164.535 277.113 164.1 277.185 163.665 277.185C163.013 277.185 162.288 277.185 161.635 277.258C161.127 277.258 160.692 277.258 160.185 277.258C159.46 277.258 158.735 277.258 158.01 277.258C157.575 277.258 157.14 277.258 156.705 277.258C156.052 277.258 155.399 277.185 154.674 277.185C154.239 277.185 153.732 277.185 153.297 277.113C152.572 277.04 151.847 277.04 151.121 276.968C150.686 276.968 150.324 276.895 149.889 276.895C149.019 276.823 148.149 276.75 147.279 276.605C147.061 276.605 146.771 276.533 146.554 276.533C145.466 276.388 144.306 276.243 143.218 276.098C143.001 276.098 142.856 276.025 142.711 276.025C141.768 275.88 140.826 275.735 139.883 275.59C139.52 275.518 139.085 275.445 138.723 275.373C137.998 275.228 137.273 275.083 136.548 274.938C136.185 274.865 135.823 274.793 135.46 274.72C134.662 274.575 133.865 274.358 133.067 274.213C132.632 274.14 132.197 273.995 131.762 273.85C131.037 273.705 130.312 273.487 129.659 273.27C129.224 273.125 128.862 273.052 128.427 272.907C127.339 272.617 126.179 272.255 125.092 271.892C124.874 271.82 124.729 271.747 124.511 271.675C123.279 271.24 122.046 270.805 120.814 270.297C120.306 270.08 119.799 269.935 119.364 269.717C119.001 269.572 118.566 269.427 118.203 269.21C117.623 268.992 117.116 268.702 116.536 268.485C116.173 268.34 115.811 268.194 115.448 267.977C114.868 267.687 114.288 267.397 113.708 267.107C113.418 266.962 113.128 266.817 112.838 266.672C111.968 266.237 111.17 265.729 110.3 265.294C101.672 260.291 95.7263 254.346 92.4635 248.038C90.5058 244.267 89.5632 240.279 89.5632 236.364L89.4907 259.059C89.4907 269.5 96.3789 280.013 110.228 287.989C111.025 288.496 111.895 288.931 112.765 289.366C113.055 289.511 113.345 289.656 113.635 289.801C114.216 290.092 114.796 290.382 115.376 290.672C115.738 290.817 116.101 290.962 116.463 291.179C116.971 291.397 117.551 291.687 118.058 291.904C118.421 292.049 118.856 292.194 119.219 292.412C119.581 292.557 119.944 292.702 120.306 292.847C120.451 292.919 120.524 292.919 120.669 292.992C121.901 293.499 123.134 293.934 124.366 294.369C124.584 294.442 124.729 294.514 124.947 294.587C126.034 294.95 127.122 295.312 128.282 295.602C128.499 295.675 128.644 295.747 128.862 295.747C129.079 295.82 129.297 295.892 129.514 295.892C130.24 296.11 130.965 296.255 131.617 296.472C132.052 296.617 132.487 296.69 132.922 296.762C133.72 296.98 134.517 297.125 135.315 297.27C135.605 297.342 135.895 297.415 136.185 297.487C136.258 297.487 136.33 297.487 136.403 297.56C137.128 297.705 137.853 297.85 138.578 297.995C138.94 298.067 139.375 298.14 139.738 298.212C140.681 298.357 141.623 298.502 142.566 298.647C142.711 298.647 142.928 298.72 143.073 298.72C144.161 298.865 145.321 299.01 146.409 299.155C146.626 299.155 146.916 299.227 147.134 299.227C148.004 299.3 148.874 299.445 149.744 299.517H149.816C150.179 299.517 150.614 299.59 150.976 299.59C151.702 299.662 152.427 299.662 153.152 299.735C153.587 299.735 154.094 299.807 154.529 299.807C155.182 299.807 155.834 299.88 156.559 299.88C156.632 299.88 156.632 299.88 156.705 299.88C157.067 299.88 157.43 299.88 157.792 299.88C158.517 299.88 159.242 299.88 159.967 299.88C160.475 299.88 160.91 299.88 161.417 299.88C162.07 299.88 162.795 299.88 163.448 299.807C163.593 299.807 163.665 299.807 163.81 299.807C164.1 299.807 164.463 299.807 164.753 299.735C165.55 299.735 166.348 299.662 167.145 299.59C167.653 299.59 168.088 299.517 168.596 299.517C169.321 299.445 170.118 299.372 170.843 299.3C171.133 299.3 171.351 299.227 171.641 299.227C171.858 299.227 172.003 299.155 172.221 299.155C173.381 299.01 174.541 298.865 175.701 298.72C175.919 298.72 176.064 298.647 176.281 298.647C177.586 298.43 178.964 298.212 180.269 297.995C180.414 297.995 180.487 297.922 180.632 297.922C180.994 297.85 181.357 297.777 181.647 297.705C182.227 297.56 182.879 297.487 183.46 297.342C183.967 297.27 184.475 297.125 184.982 297.052C185.562 296.907 186.142 296.762 186.795 296.617C187.302 296.472 187.81 296.4 188.245 296.255C188.825 296.11 189.405 295.965 189.985 295.82C190.493 295.675 190.928 295.53 191.435 295.385C192.015 295.24 192.595 295.022 193.175 294.877C193.393 294.804 193.683 294.732 193.9 294.659C194.046 294.587 194.263 294.514 194.408 294.442C195.423 294.079 196.438 293.717 197.453 293.354C197.671 293.282 197.888 293.209 198.106 293.137C199.266 292.702 200.426 292.194 201.586 291.687C201.876 291.542 202.166 291.397 202.456 291.252C203.326 290.889 204.196 290.454 205.067 290.019C205.357 289.874 205.719 289.729 206.009 289.511C207.097 288.931 208.184 288.351 209.272 287.771C209.562 287.626 209.852 287.409 210.142 287.264C210.432 287.119 210.65 286.974 210.94 286.756C211.375 286.466 211.81 286.249 212.245 285.959C212.607 285.741 212.97 285.451 213.332 285.234C213.767 284.944 214.13 284.654 214.492 284.436C214.855 284.146 215.217 283.928 215.507 283.638C215.87 283.348 216.233 283.058 216.595 282.768C216.958 282.478 217.248 282.261 217.538 281.971C217.9 281.681 218.19 281.391 218.553 281.101C218.698 280.956 218.843 280.883 218.988 280.738C219.278 280.521 219.495 280.231 219.785 280.013C219.858 279.941 220.003 279.868 220.075 279.723C220.583 279.216 221.091 278.708 221.526 278.2C221.671 278.055 221.743 277.983 221.816 277.838C222.178 277.403 222.613 276.968 222.976 276.533C223.048 276.46 223.121 276.315 223.193 276.243C223.193 276.17 223.266 276.17 223.338 276.098C223.701 275.59 224.063 275.155 224.426 274.648C224.498 274.575 224.571 274.43 224.643 274.358C225.006 273.85 225.368 273.27 225.658 272.762C225.731 272.69 225.731 272.617 225.803 272.472C225.948 272.255 226.021 272.037 226.166 271.892C226.239 271.747 226.311 271.53 226.456 271.385C226.674 271.022 226.819 270.66 226.964 270.297C227.109 270.007 227.254 269.717 227.399 269.427C227.544 269.065 227.689 268.702 227.834 268.34C227.906 268.194 227.979 268.049 228.051 267.832C228.124 267.687 228.124 267.542 228.196 267.397C228.341 267.034 228.414 266.744 228.559 266.382C228.631 266.092 228.776 265.729 228.849 265.439C228.921 265.077 228.994 264.787 229.066 264.424C229.139 264.207 229.139 264.062 229.211 263.844C229.211 263.699 229.211 263.627 229.284 263.482C229.356 263.119 229.429 262.756 229.429 262.394C229.501 262.104 229.501 261.814 229.574 261.451C229.574 261.089 229.646 260.726 229.646 260.364C229.646 260.146 229.719 259.929 229.719 259.711C229.719 259.494 229.719 259.276 229.719 259.131L229.791 236.437C229.574 237.017 229.574 237.452 229.574 237.814Z" fill="url(#paint6_linear_525_26047)"/>
<path d="M229.667 236.584C229.73 214.16 198.358 195.892 159.595 195.782C120.832 195.672 89.357 213.762 89.2934 236.187C89.2299 258.611 120.602 276.879 159.365 276.989C198.128 277.099 229.603 259.009 229.667 236.584Z" fill="url(#paint7_linear_525_26047)"/>
<path d="M188.125 236.468C188.151 227.297 175.349 219.827 159.532 219.782C143.714 219.738 130.87 227.135 130.844 236.305C130.818 245.475 143.62 252.946 159.438 252.99C175.255 253.035 188.099 245.638 188.125 236.468Z" fill="url(#paint8_linear_525_26047)"/>
<path d="M158.723 -17.3373C51.3403 -17.3373 0.295532 23.9915 0.295532 23.9915L130.808 236.364H187.943L318.165 23.9915C318.165 23.9915 266.105 -17.3373 158.723 -17.3373Z" fill="url(#paint9_linear_525_26047)"/>
<path d="M225.685 55.9039L159.957 94.0824L93.7528 55.9039L159.528 17.6778L225.685 55.9039Z" fill="url(#paint10_linear_525_26047)"/>
<path d="M225.687 55.904L225.067 138.41L159.292 176.636L159.959 94.0825L225.687 55.904Z" fill="url(#paint11_linear_525_26047)"/>
<path d="M159.958 94.0825L159.291 176.636L93.0863 138.41L93.7536 55.904L159.958 94.0825Z" fill="url(#paint12_linear_525_26047)"/>
<defs>
<linearGradient id="paint0_linear_525_26047" x1="280.321" y1="233.698" x2="72.6975" y2="428.65" gradientUnits="userSpaceOnUse">
<stop stop-color="#18E7D2"/>
<stop offset="1" stop-color="#18E7D2" stop-opacity="0"/>
</linearGradient>
<linearGradient id="paint1_linear_525_26047" x1="159.475" y1="269.065" x2="159.475" y2="359.843" gradientUnits="userSpaceOnUse">
<stop stop-color="#4255CA"/>
<stop offset="1" stop-color="#CAD1FF" stop-opacity="0.3"/>
</linearGradient>
<linearGradient id="paint2_linear_525_26047" x1="84.2724" y1="232.332" x2="106.739" y2="338.623" gradientUnits="userSpaceOnUse">
<stop stop-color="#373E6F"/>
<stop offset="1" stop-color="#3E4AA8"/>
</linearGradient>
<linearGradient id="paint3_linear_525_26047" x1="159.316" y1="295.675" x2="159.316" y2="342.514" gradientUnits="userSpaceOnUse">
<stop stop-color="white"/>
<stop offset="1" stop-color="#CAD1FF" stop-opacity="0.01"/>
</linearGradient>
<linearGradient id="paint4_linear_525_26047" x1="147.204" y1="326.783" x2="138.619" y2="345.459" gradientUnits="userSpaceOnUse">
<stop stop-color="#3E4AA8"/>
<stop offset="1" stop-color="#373E6F"/>
</linearGradient>
<linearGradient id="paint5_linear_525_26047" x1="164.05" y1="331.36" x2="177.38" y2="344.69" gradientUnits="userSpaceOnUse">
<stop stop-color="#F3C8B7"/>
<stop offset="1" stop-color="#FCB396"/>
</linearGradient>
<linearGradient id="paint6_linear_525_26047" x1="229.792" y1="193.411" x2="126.651" y2="320.33" gradientUnits="userSpaceOnUse">
<stop stop-color="#3E4AA8"/>
<stop offset="1" stop-color="#373E6F"/>
</linearGradient>
<linearGradient id="paint7_linear_525_26047" x1="89.2934" y1="236.187" x2="229.667" y2="236.584" gradientUnits="userSpaceOnUse">
<stop stop-color="#707BBF"/>
<stop offset="1" stop-color="#CAD1FF" stop-opacity="0.01"/>
</linearGradient>
<linearGradient id="paint8_linear_525_26047" x1="133.407" y1="223.531" x2="141.222" y2="260.463" gradientUnits="userSpaceOnUse">
<stop stop-color="#3E4AA8"/>
<stop offset="1" stop-color="#373E6F"/>
</linearGradient>
<linearGradient id="paint9_linear_525_26047" x1="159.23" y1="75.9159" x2="159.23" y2="508.014" gradientUnits="userSpaceOnUse">
<stop stop-color="white" stop-opacity="0"/>
<stop offset="1" stop-color="white"/>
</linearGradient>
<linearGradient id="paint10_linear_525_26047" x1="178.195" y1="0.908256" x2="159.595" y2="94.0576" gradientUnits="userSpaceOnUse">
<stop stop-color="white"/>
<stop offset="1" stop-color="#00A3E0" stop-opacity="0"/>
<stop offset="1" stop-color="white" stop-opacity="0"/>
</linearGradient>
<linearGradient id="paint11_linear_525_26047" x1="151.786" y1="65.1276" x2="209.857" y2="134.138" gradientUnits="userSpaceOnUse">
<stop stop-color="#6200EE"/>
<stop offset="1" stop-color="#6200EE" stop-opacity="0"/>
</linearGradient>
<linearGradient id="paint12_linear_525_26047" x1="126.522" y1="55.904" x2="126.522" y2="176.636" gradientUnits="userSpaceOnUse">
<stop stop-color="#18E7D2"/>
<stop offset="1" stop-color="#18E7D2" stop-opacity="0"/>
</linearGradient>
</defs>
</svg>
