<svg width="31" height="25" viewBox="0 0 31 25" fill="none" xmlns="http://www.w3.org/2000/svg">
<path d="M26.0775 2.18576C24.1306 1.26492 22.0429 0.586486 19.8601 0.197919C19.8203 0.19042 19.7806 0.209161 19.7601 0.246644C19.4916 0.73891 19.1942 1.38111 18.986 1.88588C16.6382 1.52356 14.3024 1.52356 12.0028 1.88588C11.7945 1.36989 11.4863 0.73891 11.2166 0.246644C11.1961 0.210411 11.1564 0.19167 11.1166 0.197919C8.935 0.585244 6.84729 1.26368 4.89922 2.18576C4.88235 2.19325 4.8679 2.20576 4.8583 2.22199C0.898345 8.32044 -0.186454 14.269 0.345712 20.1438C0.34812 20.1725 0.363771 20.2 0.385444 20.2175C2.99811 22.1953 5.52893 23.396 8.01275 24.1919C8.0525 24.2044 8.09462 24.1894 8.11991 24.1557C8.70746 23.3286 9.23121 22.4565 9.68027 21.5394C9.70677 21.4857 9.68147 21.4219 9.62731 21.4007C8.79656 21.0759 8.00552 20.6798 7.24459 20.23C7.18441 20.1938 7.17959 20.105 7.23496 20.0626C7.39508 19.9389 7.55525 19.8102 7.70815 19.6802C7.73582 19.6565 7.77436 19.6515 7.80689 19.6665C12.8058 22.0192 18.2178 22.0192 23.1578 19.6665C23.1903 19.6503 23.2289 19.6553 23.2577 19.679C23.4107 19.8089 23.5708 19.9389 23.7321 20.0626C23.7875 20.105 23.7839 20.1938 23.7237 20.23C22.9628 20.6885 22.1717 21.0759 21.3398 21.3995C21.2856 21.4207 21.2615 21.4857 21.288 21.5394C21.7467 22.4552 22.2705 23.3273 22.8472 24.1544C22.8713 24.1894 22.9146 24.2044 22.9543 24.1919C25.4502 23.396 27.981 22.1953 30.5937 20.2175C30.6166 20.2 30.631 20.1738 30.6334 20.145C31.2703 13.3531 29.5667 7.45335 26.1172 2.22323C26.1088 2.20576 26.0944 2.19325 26.0775 2.18576ZM10.4268 16.5667C8.92175 16.5667 7.68165 15.1423 7.68165 13.3931C7.68165 11.6439 8.8977 10.2196 10.4268 10.2196C11.9679 10.2196 13.196 11.6564 13.1719 13.3931C13.1719 15.1423 11.9558 16.5667 10.4268 16.5667ZM20.5764 16.5667C19.0714 16.5667 17.8313 15.1423 17.8313 13.3931C17.8313 11.6439 19.0474 10.2196 20.5764 10.2196C22.1176 10.2196 23.3456 11.6564 23.3216 13.3931C23.3216 15.1423 22.1176 16.5667 20.5764 16.5667Z" fill="white" fill-opacity="0.5"/>
</svg>
