<svg width="26" height="25" viewBox="0 0 26 25" fill="none" xmlns="http://www.w3.org/2000/svg">
<path fill-rule="evenodd" clip-rule="evenodd" d="M12.0281 0.240795C11.2902 0.290229 10.3153 0.465193 9.54907 0.685699C5.21662 1.93274 1.84686 5.57451 0.951383 9.97748C0.298079 13.1897 0.909492 16.4862 2.65169 19.1451C3.87701 21.0152 5.43487 22.4411 7.30159 23.4015C7.9805 23.7507 8.93915 24.1403 9.23671 24.1879C9.51501 24.2324 9.75997 24.0983 9.87484 23.8386C9.9602 23.6456 9.96424 23.5502 9.9333 22.4644L9.90001 21.2977L9.48676 21.3617C9.02264 21.4336 8.25529 21.4078 7.63369 21.2994C7.13023 21.2116 6.6184 20.9573 6.2961 20.6346C6.04114 20.3794 5.97538 20.2686 5.6414 19.5315C5.3397 18.8656 4.9954 18.4237 4.53017 18.105C4.2095 17.8855 3.94624 17.5979 3.96704 17.49C3.99471 17.3462 4.19903 17.2824 4.54905 17.3082C5.22493 17.3579 5.93257 17.8515 6.43671 18.6249C6.78193 19.1545 7.12244 19.4837 7.539 19.6903C7.83883 19.8391 7.92112 19.8577 8.35296 19.8738C8.84936 19.8923 9.34653 19.8173 9.75007 19.6632C9.9494 19.5871 9.95588 19.5776 10.029 19.2537C10.1221 18.8415 10.2978 18.4646 10.5395 18.1589L10.7252 17.924L10.3317 17.8686C9.06477 17.6904 8.16257 17.3812 7.32119 16.8369C6.21986 16.1244 5.56597 15.0152 5.25145 13.3259C5.15359 12.8002 5.13822 11.4568 5.22441 10.9626C5.36406 10.1619 5.69424 9.4277 6.18647 8.82345L6.4015 8.55951L6.3083 8.26008C6.05714 7.45309 6.10485 6.47729 6.44286 5.5073C6.52775 5.26368 6.5485 5.25384 6.93576 5.27382C7.50168 5.30298 8.71682 5.79079 9.54336 6.32058L9.88752 6.54118L10.1531 6.48915C10.2992 6.46057 10.5745 6.4035 10.7649 6.36237C12.0666 6.0811 13.9112 6.0811 15.2129 6.36237C15.4033 6.4035 15.678 6.4598 15.8233 6.48747L16.0875 6.53777L16.5439 6.26024C17.6314 5.59896 18.871 5.15506 19.3055 5.27128C19.4289 5.30433 19.4636 5.35347 19.5585 5.62995C19.7652 6.23247 19.8231 6.63904 19.7988 7.31752C19.7825 7.77448 19.7492 8.02895 19.6763 8.25244L19.5763 8.55951L19.7864 8.81744C20.2134 9.34161 20.5328 9.98978 20.7093 10.6903C20.8165 11.1158 20.8283 12.6926 20.7288 13.3019C20.5735 14.2532 20.1793 15.2516 19.7203 15.8561C18.9267 16.9013 17.4891 17.6145 15.6697 17.8654L15.2518 17.923L15.4378 18.1584C15.6669 18.448 15.8459 18.8193 15.9494 19.2193C16.0149 19.4722 16.0312 19.8779 16.0465 21.6369C16.067 23.9891 16.0664 23.9851 16.3881 24.1377C16.6101 24.2431 16.79 24.2108 17.4915 23.9398C21.0344 22.5714 23.8335 19.4606 24.8549 15.7563C25.5338 13.2944 25.3902 10.4356 24.4685 8.06484C23.6463 5.94975 22.1866 4.01876 20.3949 2.67578C18.452 1.21948 16.2394 0.397744 13.8304 0.237768C12.989 0.181897 12.9056 0.182041 12.0281 0.240795Z" fill="white" fill-opacity="0.5"/>
</svg>
