<?xml version="1.0" encoding="utf-8"?>
<svg viewBox="0.616 0 1367.794 678.77" width="1367.794" height="678.77" xmlns="http://www.w3.org/2000/svg">
  <path id="path18" style="fill: rgb(92, 150, 215); fill-opacity: 1; fill-rule: evenodd; stroke: none;" d="M 7174.751 5463.405 L 9533.767 1366.129 L 10263.079 1366.129 L 7904.086 5463.405 L 7174.751 5463.405" transform="matrix(0.133333, 0, 0, -0.133333, 0, 794.693359)"/>
  <path id="path20" style="fill: rgb(41, 81, 170); fill-opacity: 1; fill-rule: evenodd; stroke: none;" d="M 5918.256 1366.129 L 6647.568 1366.129 L 5669.079 3057.979 C 4908.788 4392.452 4365.538 5960.199 2549.724 5960.199 C 1137.675 5960.199 4.623 4811.646 4.623 3415.027 C 4.623 2002.386 1137.675 869.428 2549.724 869.428 C 3202.051 869.428 3822.335 1102.04 4288.552 1552.214 L 3946.864 2142.488 C 3590.242 1754.32 3092.999 1521.211 2549.724 1521.211 C 1510.294 1521.211 671.929 2374.579 671.929 3415.027 C 671.929 4454.433 1510.294 5292.939 2549.724 5292.939 C 3015.965 5292.939 3465.665 5121.836 3807.33 4811.646 C 4210.501 4454.433 4831.779 3243.923 5141.944 2731.769 L 5918.256 1366.129" transform="matrix(0.133333, 0, 0, -0.133333, 0, 794.693359)"/>
  <path id="path22" style="fill: rgb(65, 122, 199); fill-opacity: 1; fill-rule: evenodd; stroke: none;" d="M 5358.984 5463.405 L 7734.07 1366.129 L 8463.357 1366.129 L 6104.341 5463.405 L 5358.984 5463.405" transform="matrix(0.133333, 0, 0, -0.133333, 0, 794.693359)"/>
</svg>