<svg width="236" height="45" viewBox="0 0 236 45" fill="none" xmlns="http://www.w3.org/2000/svg">
<path d="M40.635 22.5185C40.635 19.0104 39.6384 15.5573 37.7359 12.6185L44.7481 5.47362L39.4935 0.110352L32.4813 7.25525C26.5744 3.32464 18.928 3.32464 13.0212 7.25525L5.99086 0.110352L0.71814 5.47362L7.73031 12.6185C3.8709 18.643 3.8709 26.4124 7.73031 32.4369L0.71814 39.5634L5.99086 44.9267L13.003 37.7818C18.9099 41.7124 26.5563 41.7124 32.4632 37.7818L39.4753 44.9267L44.7481 39.5634L37.7359 32.4185C39.6384 29.4797 40.6531 26.045 40.635 22.5185ZM12.2964 22.5185C12.2964 18.1838 14.8693 14.2716 18.8193 12.6553C22.7693 11.0389 27.2992 12.0124 30.2526 15.1348C33.2061 18.2573 34.0033 22.9042 32.2457 26.8532L25.3604 19.8369L20.1058 25.2001L26.9911 32.2165C23.7659 33.6859 20.0152 33.4104 17.0436 31.445C14.0902 29.4797 12.2964 26.1185 12.2964 22.5185Z" fill="#4BBCFC"/>
<path d="M78.5584 22.739C78.5584 27.1288 76.3841 31.0778 72.4884 32.8961L74.554 35.6329L70.296 37.8186L67.4512 33.9798H67.3606C60.3303 33.9798 56.181 28.7818 56.181 22.7206C56.181 16.6594 60.3303 11.4614 67.3606 11.4614C74.3909 11.4614 78.5584 16.6778 78.5584 22.739ZM67.3788 29.5716C71.3469 29.5716 73.5031 26.4308 73.5031 22.7206C73.5031 19.0104 71.3469 15.8696 67.3788 15.8696C63.3744 15.8696 61.2182 19.0104 61.2544 22.7206C61.2182 26.4492 63.3744 29.5716 67.3788 29.5716ZM86.3859 33.7777C82.9251 33.7777 81.0588 31.592 81.0588 27.79V18.7165H85.6974V26.7431C85.6974 28.7451 86.3497 29.8471 88.0891 29.8471C90.0279 29.8471 90.8614 28.5614 90.8614 26.5961V18.7165H95.4093V33.3737H90.8614V31.2798C90.0641 32.841 88.5784 33.7777 86.3859 33.7777ZM104.958 33.7777C100.646 33.7777 98.1635 30.4533 98.1635 26.0451C98.1635 21.6553 100.827 18.3124 105.013 18.3124C107.114 18.3124 108.745 19.3226 109.524 20.8104V18.7165H114.072V33.3737H109.524V31.2982C108.763 32.7675 106.969 33.7777 104.958 33.7777ZM106.281 29.9206C108.546 29.9206 109.724 28.1941 109.724 26.0635C109.724 23.9696 108.564 22.2247 106.281 22.2247C104.161 22.2247 102.838 23.841 102.838 26.0635C102.838 28.2675 104.161 29.9206 106.281 29.9206ZM117.877 18.7165H122.461V20.8471C123.295 19.2124 124.944 18.3308 127.118 18.3308C130.615 18.3308 132.373 20.3329 132.373 24.3186V33.392H127.77V25.8431C127.77 23.3818 127.082 22.2614 125.234 22.2614C123.404 22.2614 122.461 23.4737 122.461 25.7329V33.392H117.877V18.7165ZM143.589 29.7553C144.15 29.7553 144.748 29.7186 145.165 29.6635V33.3737C144.513 33.5022 143.426 33.6124 142.121 33.6124C139.965 33.6124 137.011 33.1165 137.011 28.2308V22.39H134.746V18.7165H137.011V14.3635H141.595V18.7165H144.857V22.39H141.595V27.2573C141.595 29.4247 142.465 29.7553 143.589 29.7553ZM153.59 33.8328C149.369 33.8328 146.778 31.739 146.778 28.9655H151.326C151.326 29.9757 152.286 30.692 153.681 30.692C154.659 30.692 155.348 30.1777 155.348 29.3145C155.348 28.7451 155.076 28.2492 154.297 28.0655L150.764 27.1471C148.372 26.541 147.14 25.0165 147.14 22.9226C147.14 20.1859 149.495 18.2757 153.301 18.2757C157.522 18.2757 159.733 20.0757 159.733 22.8308H155.221C155.221 21.8022 154.478 21.2145 153.246 21.2145C152.268 21.2145 151.597 21.7104 151.597 22.4267C151.597 23.088 152.05 23.5288 152.829 23.7308L156.236 24.6675C158.446 25.2737 159.878 26.6512 159.878 28.7451C159.896 31.7941 157.522 33.8328 153.59 33.8328ZM170.296 29.7553C170.858 29.7553 171.456 29.7186 171.873 29.6635V33.3737C171.221 33.5022 170.133 33.6124 168.829 33.6124C166.673 33.6124 163.719 33.1165 163.719 28.2308V22.39H161.454V18.7165H163.719V14.3635H168.303V18.7165H171.565V22.39H168.303V27.2573C168.303 29.4247 169.155 29.7553 170.296 29.7553ZM180.262 33.7777C175.95 33.7777 173.467 30.4533 173.467 26.0451C173.467 21.6553 176.131 18.3124 180.316 18.3124C182.418 18.3124 184.049 19.3226 184.828 20.8104V18.7165H189.376V33.3737H184.828V31.2982C184.049 32.7675 182.255 33.7777 180.262 33.7777ZM181.567 29.9206C183.832 29.9206 185.009 28.1941 185.009 26.0635C185.009 23.9696 183.85 22.2247 181.567 22.2247C179.447 22.2247 178.124 23.841 178.124 26.0635C178.124 28.2675 179.447 29.9206 181.567 29.9206ZM193.181 18.7165H197.765V20.8471C198.4 19.3778 199.885 18.3308 201.897 18.3308C204.469 18.3308 205.792 19.488 206.408 21.0308C207.187 19.4512 208.891 18.3308 211.011 18.3308C215.142 18.3308 216.12 21.2145 216.12 24.3002V33.392H211.518V25.1451C211.518 23.1063 210.775 22.2614 209.362 22.2614C207.93 22.2614 206.934 23.088 206.934 25.8431V33.392H202.331V25.1084C202.331 23.0696 201.607 22.2431 200.211 22.2431C198.744 22.2431 197.765 23.0696 197.765 25.8247V33.3737H193.181V18.7165ZM219.726 18.7165H224.31V20.8104C225.053 19.4145 226.847 18.3124 229.003 18.3124C232.953 18.3124 235.635 21.4165 235.635 26.0451C235.635 30.6369 232.862 33.7777 228.876 33.7777C226.756 33.7777 225.017 32.6757 224.31 31.3165V39.4716H219.726V18.7165ZM227.553 29.9206C229.565 29.9206 230.96 28.341 230.96 26.0635C230.96 23.8043 229.547 22.2247 227.553 22.2247C225.488 22.2247 224.093 23.7675 224.093 26.0635C224.093 28.3594 225.524 29.9206 227.553 29.9206Z" fill="white"/>
</svg>
