<svg width="201" height="21" viewBox="0 0 201 21" fill="none" xmlns="http://www.w3.org/2000/svg">
<path fill-rule="evenodd" clip-rule="evenodd" d="M9.26864 17.1963C12.4032 17.1963 14.2689 16.0757 15.9295 14.2829L13.6532 11.9858C12.3845 13.1437 11.2464 13.8907 9.38059 13.8907C6.60057 13.8907 4.66016 11.5749 4.66016 8.7736V8.73625C4.66016 5.9536 6.63789 3.67519 9.38059 3.67519C11.0038 3.67519 12.2912 4.36618 13.5413 5.50539L15.8175 2.87214C14.3063 1.3781 12.4778 0.369626 9.41791 0.369626C4.41762 0.369626 0.947266 4.16076 0.947266 8.79228V8.84831C0.947266 13.5172 4.49225 17.2149 9.2873 17.2149L9.26864 17.1963ZM24.2882 17.1963C28.169 17.1963 31.0423 14.2829 31.0423 10.7159V10.6598C31.0423 7.07414 28.1877 4.21678 24.3255 4.21678C20.4633 4.21678 17.5714 7.13016 17.5714 10.6972V10.7345C17.5714 14.3202 20.426 17.1776 24.2882 17.1776V17.1963ZM24.3255 14.1522C22.3851 14.1522 21.0604 12.5461 21.0604 10.7159V10.6598C21.0604 8.82963 22.2731 7.26089 24.2882 7.26089C26.3032 7.26089 27.5533 8.86699 27.5533 10.6972V10.7345C27.5533 12.5647 26.3405 14.1335 24.3255 14.1335V14.1522ZM33.5984 16.9161H37.1247V9.96883C37.1247 8.28804 37.983 7.42897 39.3264 7.42897C40.6697 7.42897 41.4534 8.28804 41.4534 9.96883V16.9161H44.9797V8.84831C44.9797 5.99096 43.4311 4.21678 40.763 4.21678C38.9719 4.21678 37.927 5.16923 37.1247 6.21506V4.44089H33.5984V16.8975V16.9161ZM51.3793 17.0095H54.5884L59.4954 4.45957H55.8199L53.0212 12.8075L50.2412 4.45957H46.5096L51.4166 17.0095H51.3793ZM66.7347 17.1963C68.9923 17.1963 70.6528 16.3185 71.8282 14.8805L69.8132 13.0876C68.843 14.0027 67.9847 14.3576 66.7906 14.3576C65.2047 14.3576 64.1039 13.5172 63.7494 11.9111H72.4066C72.4253 11.5936 72.4626 11.2574 72.4626 10.9773C72.4626 7.44764 70.5595 4.21678 66.3988 4.21678C62.7792 4.21678 60.2418 7.14884 60.2418 10.6972V10.7345C60.2418 14.5443 63.0031 17.1776 66.7347 17.1776V17.1963ZM63.6934 9.70738C63.9733 8.10129 64.9249 7.05546 66.3802 7.05546C67.8355 7.05546 68.787 8.11996 69.0109 9.70738H63.6934ZM77.4629 20.7073C79.5712 20.7073 80.5974 19.7548 81.549 17.2149L86.3254 4.45957H82.6498L79.9257 12.9382L77.0897 4.45957H73.3582L78.2279 16.9722C77.9294 17.6071 77.5935 17.7939 76.9965 17.7939C76.53 17.7939 75.9516 17.5884 75.4852 17.3083L74.3097 19.8669C75.2053 20.4084 76.1755 20.7259 77.4443 20.7259L77.4629 20.7073ZM93.8258 17.1963C97.7066 17.1963 100.58 14.2829 100.58 10.7159V10.6598C100.58 7.07414 97.7253 4.21678 93.8631 4.21678C90.001 4.21678 87.109 7.13016 87.109 10.6972V10.7345C87.109 14.3202 89.9636 17.1776 93.8258 17.1776V17.1963ZM93.8631 14.1522C91.9041 14.1522 90.598 12.5461 90.598 10.7159V10.6598C90.598 8.82963 91.8108 7.26089 93.8258 7.26089C95.8408 7.26089 97.0909 8.86699 97.0909 10.6972V10.7345C97.0909 12.5647 95.8782 14.1335 93.8631 14.1335V14.1522ZM103.136 16.9161H106.662V12.322C106.662 9.35255 108.099 7.9332 110.45 7.9332H110.636V4.23546C108.547 4.14208 107.39 5.26261 106.662 6.98076V4.47824H103.136V16.9348V16.9161ZM113.566 16.9161H115.394V9.81944H124.201V8.13864H115.394V2.33055H125.246V0.631082H113.566V16.8975V16.9161ZM128.548 2.27453H130.6V0.294922H128.548V2.27453ZM128.66 16.9161H130.451V4.90777H128.66V16.9161ZM134.612 16.9161H136.403V10.0435C136.403 7.7838 137.933 6.27109 140.004 6.27109C142.075 6.27109 143.325 7.67175 143.325 9.89414V16.9161H145.116V9.4646C145.116 6.60725 143.418 4.64632 140.526 4.64632C138.455 4.64632 137.205 5.69214 136.422 6.99943V4.90777H134.63V16.9161H134.612ZM152.486 17.1776C154.594 17.1776 155.994 16.2065 156.833 15.1046V16.9161H158.55V9.57665C158.55 8.04526 158.139 6.88738 157.318 6.06565C156.441 5.1879 155.135 4.73969 153.437 4.73969C151.74 4.73969 150.396 5.13188 149.072 5.74817L149.613 7.20486C150.732 6.70062 151.833 6.32712 153.251 6.32712C155.508 6.32712 156.833 7.44765 156.833 9.59533V10.0062C155.77 9.70738 154.669 9.50195 153.139 9.50195C150.098 9.50195 148.008 10.8466 148.008 13.3865V13.4238C148.008 15.889 150.266 17.1589 152.486 17.1589V17.1776ZM152.84 15.7582C151.217 15.7582 149.818 14.8805 149.818 13.3678V13.3118C149.818 11.799 151.068 10.8279 153.326 10.8279C154.781 10.8279 155.975 11.0894 156.852 11.3322V12.49C156.852 14.3949 155.042 15.7396 152.84 15.7396V15.7582ZM162.356 16.9161H164.147V10.0435C164.147 7.7838 165.677 6.27109 167.748 6.27109C169.819 6.27109 171.069 7.67175 171.069 9.89414V16.9161H172.86V9.4646C172.86 6.60725 171.162 4.64632 168.27 4.64632C166.199 4.64632 164.949 5.69214 164.166 6.99943V4.90777H162.375V16.9161H162.356ZM182.077 17.1963C184.335 17.1963 185.771 16.2251 186.984 14.8805L185.846 13.816C184.895 14.8431 183.7 15.6088 182.171 15.6088C179.67 15.6088 177.767 13.5359 177.767 10.94V10.9026C177.767 8.32539 179.633 6.25241 182.059 6.25241C183.682 6.25241 184.745 7.07414 185.697 8.06394L186.891 6.81268C185.771 5.63612 184.353 4.68367 182.077 4.68367C178.57 4.68367 175.92 7.5597 175.92 10.9586V11.0147C175.92 14.3763 178.57 17.2523 182.077 17.2523V17.1963ZM194.82 17.1963C197.097 17.1963 198.552 16.2812 199.765 14.9365L198.645 13.928C197.675 14.9552 196.5 15.6275 194.858 15.6275C192.731 15.6275 190.884 14.1708 190.641 11.5563H200.157C200.175 11.3508 200.175 11.2014 200.175 10.9773C200.175 7.46632 198.123 4.62765 194.578 4.62765C191.257 4.62765 188.813 7.41029 188.813 10.8839V10.9213C188.813 14.6377 191.499 17.1776 194.802 17.1776L194.82 17.1963ZM190.641 10.249C190.865 7.89586 192.451 6.15904 194.541 6.15904C196.929 6.15904 198.179 8.06394 198.365 10.249H190.641Z" fill="white"/>
</svg>
