<svg width="96" height="34" viewBox="0 0 96 34" fill="none" xmlns="http://www.w3.org/2000/svg">
<path fill-rule="evenodd" clip-rule="evenodd" d="M7.82884 14.9016C10.5383 14.9016 12.1511 13.933 13.5865 12.3832L11.6189 10.3976C10.5222 11.3985 9.5384 12.0442 7.9256 12.0442C5.52253 12.0442 3.84521 10.0424 3.84521 7.62094V7.58865C3.84521 5.1833 5.55478 3.21381 7.9256 3.21381C9.32874 3.21381 10.4416 3.81112 11.5222 4.79586L13.4898 2.51965C12.1834 1.22819 10.6029 0.356445 7.95786 0.356445C3.63556 0.356445 0.635742 3.63354 0.635742 7.63709V7.68552C0.635742 11.7213 3.70007 14.9177 7.84497 14.9177L7.82884 14.9016ZM20.8119 14.9016C24.1665 14.9016 26.6502 12.3832 26.6502 9.29985V9.25142C26.6502 6.1519 24.1827 3.68197 20.8442 3.68197C17.5057 3.68197 15.0058 6.20033 15.0058 9.28371V9.31599C15.0058 12.4155 17.4734 14.8854 20.8119 14.8854V14.9016ZM20.8442 12.2702C19.1668 12.2702 18.0217 10.8819 18.0217 9.29985V9.25142C18.0217 7.66937 19.0701 6.31334 20.8119 6.31334C22.5537 6.31334 23.6343 7.70166 23.6343 9.28371V9.31599C23.6343 10.898 22.586 12.2541 20.8442 12.2541V12.2702ZM28.8598 14.6594H31.908V8.65411C31.908 7.20121 32.6499 6.45863 33.8111 6.45863C34.9723 6.45863 35.6497 7.20121 35.6497 8.65411V14.6594H38.6979V7.68552C38.6979 5.21559 37.3592 3.68197 35.0529 3.68197C33.5046 3.68197 32.6015 4.50528 31.908 5.40931V3.87569H28.8598V14.6433V14.6594ZM44.2298 14.7401H47.0038L51.2455 3.89184H48.0682L45.649 11.1079L43.246 3.89184H40.0204L44.262 14.7401H44.2298ZM57.5031 14.9016C59.4546 14.9016 60.89 14.1428 61.9061 12.8998L60.1643 11.3501C59.3256 12.1411 58.5837 12.4478 57.5515 12.4478C56.1806 12.4478 55.2291 11.7213 54.9226 10.333H62.4061C62.4222 10.0586 62.4545 9.768 62.4545 9.52585C62.4545 6.47477 60.8094 3.68197 57.2128 3.68197C54.084 3.68197 51.8906 6.21648 51.8906 9.28371V9.31599C51.8906 12.6092 54.2775 14.8854 57.5031 14.8854V14.9016ZM54.8743 8.42811C55.1162 7.03978 55.9387 6.13576 57.1967 6.13576C58.4547 6.13576 59.2772 7.05593 59.4708 8.42811H54.8743ZM66.7768 17.9365C68.5992 17.9365 69.4863 17.1132 70.3088 14.9177L74.4376 3.89184H71.2603L68.9057 11.2209L66.4542 3.89184H63.2286L67.438 14.7079C67.18 15.2567 66.8897 15.4182 66.3736 15.4182C65.9704 15.4182 65.4704 15.2406 65.0672 14.9984L64.0511 17.2101C64.8253 17.6782 65.6639 17.9527 66.7606 17.9527L66.7768 17.9365ZM80.921 14.9016C84.2757 14.9016 86.7594 12.3832 86.7594 9.29985V9.25142C86.7594 6.1519 84.2918 3.68197 80.9533 3.68197C77.6148 3.68197 75.1149 6.20033 75.1149 9.28371V9.31599C75.1149 12.4155 77.5825 14.8854 80.921 14.8854V14.9016ZM80.9533 12.2702C79.2598 12.2702 78.1309 10.8819 78.1309 9.29985V9.25142C78.1309 7.66937 79.1792 6.31334 80.921 6.31334C82.6629 6.31334 83.7434 7.70166 83.7434 9.28371V9.31599C83.7434 10.898 82.6951 12.2541 80.9533 12.2541V12.2702ZM88.9689 14.6594H92.0171V10.6882C92.0171 8.12139 93.259 6.89449 95.2911 6.89449H95.4524V3.69811C93.646 3.6174 92.6461 4.586 92.0171 6.07118V3.90798H88.9689V14.6756V14.6594ZM1.80289 33.5455H3.38343V27.411H10.9959V25.9581H3.38343V20.9375H11.899V19.4685H1.80289V26.4989V33.5293V33.5455ZM14.7537 20.8891H16.5278V19.1779H14.7537V20.8891ZM14.8505 33.5455H16.3988V23.1653H14.8505V33.5455ZM19.9953 33.5455H21.5436V27.6047C21.5436 25.6514 22.8661 24.3438 24.6563 24.3438C26.4465 24.3438 27.5271 25.5545 27.5271 27.4756V33.5455H29.0754V27.1043C29.0754 24.6344 27.6077 22.9393 25.1079 22.9393C23.3177 22.9393 22.2371 23.8433 21.5597 24.9734V23.1653H20.0114V33.5455H19.9953ZM35.4459 33.7715C37.2684 33.7715 38.478 32.932 39.2038 31.9796V33.5455H40.6875V27.2012C40.6875 25.8774 40.3327 24.8765 39.6231 24.1662C38.8651 23.4075 37.7361 23.02 36.2685 23.02C34.8008 23.02 33.6396 23.359 32.4945 23.8918L32.9622 25.151C33.9299 24.7151 34.8815 24.3922 36.1072 24.3922C38.0587 24.3922 39.2038 25.3608 39.2038 27.2173V27.5725C38.2845 27.3142 37.3329 27.1366 36.0104 27.1366C33.3815 27.1366 31.5752 28.2989 31.5752 30.4944V30.5267C31.5752 32.6576 33.5267 33.7553 35.4459 33.7553V33.7715ZM35.7524 32.5446C34.3492 32.5446 33.1396 31.7859 33.1396 30.4782V30.4298C33.1396 29.1222 34.2202 28.2828 36.1717 28.2828C37.4297 28.2828 38.4619 28.5088 39.2199 28.7186V29.7195C39.2199 31.3661 37.6555 32.5285 35.7524 32.5285V32.5446ZM43.9777 33.5455H45.5259V27.6047C45.5259 25.6514 46.8484 24.3438 48.6387 24.3438C50.4289 24.3438 51.5094 25.5545 51.5094 27.4756V33.5455H53.0577V27.1043C53.0577 24.6344 51.5901 22.9393 49.0902 22.9393C47.3 22.9393 46.2194 23.8433 45.5421 24.9734V23.1653H43.9938V33.5455H43.9777ZM61.025 33.7876C62.9765 33.7876 64.2183 32.9482 65.2667 31.7859L64.2828 30.8657C63.4603 31.7536 62.4281 32.4154 61.1056 32.4154C58.9445 32.4154 57.2994 30.6235 57.2994 28.3796V28.3473C57.2994 26.1195 58.9122 24.3276 61.0088 24.3276C62.412 24.3276 63.3313 25.038 64.1538 25.8935L65.186 24.8119C64.2183 23.7949 62.9926 22.9716 61.025 22.9716C57.9929 22.9716 55.7027 25.4577 55.7027 28.3958V28.4442C55.7027 31.35 57.9929 33.8361 61.025 33.8361V33.7876ZM72.0404 33.7876C74.008 33.7876 75.266 32.9966 76.3143 31.8343L75.3467 30.9626C74.508 31.8504 73.4919 32.4316 72.0727 32.4316C70.2341 32.4316 68.6374 31.1724 68.4277 28.9123H76.653C76.6692 28.7348 76.6692 28.6056 76.6692 28.4119C76.6692 25.377 74.8951 22.9232 71.8308 22.9232C68.96 22.9232 66.8472 25.3285 66.8472 28.3312V28.3635C66.8472 31.576 69.1696 33.7715 72.0243 33.7715L72.0404 33.7876ZM68.4277 27.7823C68.6213 25.7483 69.9922 24.2469 71.7985 24.2469C73.8629 24.2469 74.9435 25.8935 75.1047 27.7823H68.4277Z" fill="white"/>
</svg>
