<svg width="30" height="25" viewBox="0 0 30 25" fill="none" xmlns="http://www.w3.org/2000/svg">
<path d="M9.35863 24.1963C20.287 24.1963 26.2625 14.9607 26.2625 6.9565C26.2625 6.69262 26.2625 6.42875 26.2502 6.17744C27.4084 5.32299 28.4187 4.25493 29.2195 3.03608C28.1599 3.51357 27.0141 3.84027 25.8067 3.99105C27.0387 3.23713 27.9751 2.05597 28.4187 0.63608C27.2728 1.32718 26.0038 1.8298 24.6485 2.10624C23.5643 0.925085 22.0242 0.196289 20.3117 0.196289C17.0344 0.196289 14.3731 2.91042 14.3731 6.25283C14.3731 6.73032 14.4224 7.19524 14.5333 7.63503C9.59272 7.38372 5.2189 4.97116 2.28658 1.30205C1.78144 2.1942 1.48574 3.23713 1.48574 4.34289C1.48574 6.44132 2.533 8.301 4.13468 9.38163C3.16135 9.3565 2.24962 9.08006 1.44878 8.6277C1.44878 8.65283 1.44878 8.67796 1.44878 8.70309C1.44878 11.6434 3.49401 14.0811 6.21687 14.6466C5.72404 14.7848 5.19425 14.8602 4.65215 14.8602C4.27021 14.8602 3.90059 14.8225 3.53097 14.7471C4.28253 17.1596 6.4756 18.9062 9.07526 18.9565C7.04235 20.5774 4.47966 21.545 1.69519 21.545C1.21469 21.545 0.746505 21.5198 0.27832 21.457C2.87797 23.1911 6.00742 24.1963 9.35863 24.1963Z" fill="white" fill-opacity="0.5"/>
</svg>
